<svg width="110" height="110" viewBox="0 0 110 110" fill="none" xmlns="http://www.w3.org/2000/svg">
<g filter="url(#filter0_f_1_777)">
<ellipse cx="77.1492" cy="42.4221" rx="11.8636" ry="3.57792" fill="#4DB4FF"/>
</g>
<g filter="url(#filter1_bi_1_777)">
<path fill-rule="evenodd" clip-rule="evenodd" d="M85.9999 28.2987C85.9999 28.5956 85.9884 28.8898 85.9659 29.181C87.2031 28.1593 88.7896 27.5455 90.5195 27.5455C94.4715 27.5455 97.6753 30.7492 97.6753 34.7013C97.6753 38.5271 94.673 41.6516 90.896 41.8474V41.8571H90.5344C90.5294 41.8571 90.5245 41.8572 90.5195 41.8572C90.5145 41.8572 90.5095 41.8571 90.5045 41.8571H64.1707C64.1657 41.8571 64.1607 41.8572 64.1557 41.8572C64.1507 41.8572 64.1458 41.8571 64.1408 41.8571H63.4025V41.818C59.8045 41.4416 56.9999 38.399 56.9999 34.7013C56.9999 30.996 59.8161 27.9484 63.4248 27.5823C63.7943 21.676 68.7017 17 74.7012 17C80.9413 17 85.9999 22.0586 85.9999 28.2987Z" fill="url(#paint0_linear_1_777)"/>
</g>
<path d="M70.9355 72.4888C67.8499 72.6668 64.7603 72.2152 61.8562 71.1618C58.9521 70.1084 56.2947 68.4754 54.047 66.363C51.7992 64.2505 50.0084 61.7031 48.7845 58.877C47.5605 56.0509 46.9292 53.0056 46.9292 49.9278C46.9292 46.8501 47.5605 43.8048 48.7845 40.9786C50.0084 38.1525 51.7992 35.6051 54.047 33.4926C56.2947 31.3802 58.9521 29.7472 61.8562 28.6938C64.7603 27.6404 67.8499 27.1889 70.9355 27.3668C72.8841 27.3523 74.8254 27.6066 76.704 28.1226C71.0769 24.0893 64.3062 21.9452 57.3732 22.0011C50.4402 22.0569 43.7052 24.3099 38.1444 28.4334C32.5836 32.5568 28.486 38.3366 26.4454 44.9348C24.4049 51.533 24.5275 58.6069 26.7954 65.1311C29.0633 71.6553 33.3588 77.2908 39.0591 81.2208C44.7594 85.1508 51.5685 87.171 58.4993 86.9887C65.4301 86.8063 72.1225 84.4309 77.6065 80.2067C83.0905 75.9825 87.0811 70.129 88.9999 63.4947C86.9027 66.2938 84.1767 68.5652 81.0398 70.127C77.903 71.6889 74.4426 72.4977 70.9355 72.4888Z" fill="url(#paint1_linear_1_777)"/>
<g filter="url(#filter2_f_1_777)">
<ellipse cx="16.2083" cy="4.88823" rx="16.2083" ry="4.88823" transform="matrix(-1 0 0 1 57.2514 82.8439)" fill="#4DB4FF"/>
</g>
<g filter="url(#filter3_bi_1_777)">
<path fill-rule="evenodd" clip-rule="evenodd" d="M28.951 68.4365C28.951 68.8421 28.9666 69.244 28.9973 69.6417C27.3071 68.2459 25.1397 67.4074 22.7764 67.4074C17.377 67.4074 13 71.7845 13 77.1839C13 82.4106 17.1016 86.6794 22.2618 86.947V86.9603H22.7641C22.7682 86.9603 22.7723 86.9603 22.7764 86.9603C22.7805 86.9603 22.7846 86.9603 22.7888 86.9603H58.7826C58.7867 86.9603 58.7908 86.9603 58.795 86.9603C58.7991 86.9603 58.8032 86.9603 58.8073 86.9603H59.824V86.9068C64.7397 86.3926 68.5714 82.2357 68.5714 77.1839C68.5714 72.1216 64.7238 67.9579 59.7935 67.4578C59.2886 59.3884 52.5841 53 44.3875 53C35.8621 53 28.951 59.9112 28.951 68.4365Z" fill="url(#paint2_linear_1_777)"/>
</g>
<defs>
<filter id="filter0_f_1_777" x="56.9999" y="30.5585" width="40.2987" height="23.7273" filterUnits="userSpaceOnUse" color-interpolation-filters="sRGB">
<feFlood flood-opacity="0" result="BackgroundImageFix"/>
<feBlend mode="normal" in="SourceGraphic" in2="BackgroundImageFix" result="shape"/>
<feGaussianBlur stdDeviation="4.14286" result="effect1_foregroundBlur_1_777"/>
</filter>
<filter id="filter1_bi_1_777" x="54.3635" y="14.3636" width="45.9482" height="30.1299" filterUnits="userSpaceOnUse" color-interpolation-filters="sRGB">
<feFlood flood-opacity="0" result="BackgroundImageFix"/>
<feGaussianBlur in="BackgroundImageFix" stdDeviation="1.31818"/>
<feComposite in2="SourceAlpha" operator="in" result="effect1_backgroundBlur_1_777"/>
<feBlend mode="normal" in="SourceGraphic" in2="effect1_backgroundBlur_1_777" result="shape"/>
<feColorMatrix in="SourceAlpha" type="matrix" values="0 0 0 0 0 0 0 0 0 0 0 0 0 0 0 0 0 0 127 0" result="hardAlpha"/>
<feOffset dy="0.753247"/>
<feGaussianBlur stdDeviation="1.50649"/>
<feComposite in2="hardAlpha" operator="arithmetic" k2="-1" k3="1"/>
<feColorMatrix type="matrix" values="0 0 0 0 0 0 0 0 0 0.82 0 0 0 0 1 0 0 0 0.25 0"/>
<feBlend mode="normal" in2="shape" result="effect2_innerShadow_1_777"/>
</filter>
<filter id="filter2_f_1_777" x="13.5146" y="71.5238" width="55.0569" height="32.4166" filterUnits="userSpaceOnUse" color-interpolation-filters="sRGB">
<feFlood flood-opacity="0" result="BackgroundImageFix"/>
<feBlend mode="normal" in="SourceGraphic" in2="BackgroundImageFix" result="shape"/>
<feGaussianBlur stdDeviation="5.66005" result="effect1_foregroundBlur_1_777"/>
</filter>
<filter id="filter3_bi_1_777" x="9.39809" y="49.3981" width="62.7752" height="41.164" filterUnits="userSpaceOnUse" color-interpolation-filters="sRGB">
<feFlood flood-opacity="0" result="BackgroundImageFix"/>
<feGaussianBlur in="BackgroundImageFix" stdDeviation="1.80093"/>
<feComposite in2="SourceAlpha" operator="in" result="effect1_backgroundBlur_1_777"/>
<feBlend mode="normal" in="SourceGraphic" in2="effect1_backgroundBlur_1_777" result="shape"/>
<feColorMatrix in="SourceAlpha" type="matrix" values="0 0 0 0 0 0 0 0 0 0 0 0 0 0 0 0 0 0 127 0" result="hardAlpha"/>
<feOffset dy="1.0291"/>
<feGaussianBlur stdDeviation="2.0582"/>
<feComposite in2="hardAlpha" operator="arithmetic" k2="-1" k3="1"/>
<feColorMatrix type="matrix" values="0 0 0 0 0 0 0 0 0 0.82 0 0 0 0 1 0 0 0 0.25 0"/>
<feBlend mode="normal" in2="shape" result="effect2_innerShadow_1_777"/>
</filter>
<linearGradient id="paint0_linear_1_777" x1="78.0908" y1="50.7078" x2="93.344" y2="17" gradientUnits="userSpaceOnUse">
<stop stop-color="#2BA6FF"/>
<stop offset="0.299998" stop-color="#48B2FF" stop-opacity="0.75"/>
<stop offset="1" stop-color="#3BADFF" stop-opacity="0"/>
</linearGradient>
<linearGradient id="paint1_linear_1_777" x1="56.9999" y1="22" x2="56.9999" y2="87" gradientUnits="userSpaceOnUse">
<stop stop-color="#FDC500"/>
<stop offset="1" stop-color="#FD8900"/>
</linearGradient>
<linearGradient id="paint2_linear_1_777" x1="39.7566" y1="99.0522" x2="28.9999" y2="39.5" gradientUnits="userSpaceOnUse">
<stop offset="0.13121" stop-color="#2BA6FF"/>
<stop offset="1" stop-color="#3BADFF" stop-opacity="0"/>
</linearGradient>
</defs>
</svg>
