<svg width="110" height="110" viewBox="0 0 110 110" fill="none" xmlns="http://www.w3.org/2000/svg">
<g clip-path="url(#clip0_51_36)">
<g filter="url(#filter0_f_51_36)">
<path d="M49.0417 89.8333C64.989 89.8333 77.9167 85.9345 77.9167 81.125C77.9167 76.3155 64.989 72.4167 49.0417 72.4167C33.0945 72.4167 20.1667 76.3155 20.1667 81.125C20.1667 85.9345 33.0945 89.8333 49.0417 89.8333Z" fill="#4DB4FF"/>
</g>
<g filter="url(#filter1_dii_51_36)">
<path d="M77.0001 62.3333C90.1629 62.3333 100.833 51.6628 100.833 38.5C100.833 25.3372 90.1629 14.6667 77.0001 14.6667C63.8373 14.6667 53.1667 25.3372 53.1667 38.5C53.1667 51.6628 63.8373 62.3333 77.0001 62.3333Z" fill="url(#paint0_linear_51_36)"/>
</g>
<g filter="url(#filter2_i_51_36)">
<path fill-rule="evenodd" clip-rule="evenodd" d="M70.5833 46.75C70.5833 47.4725 70.5555 48.1885 70.5007 48.897C73.512 46.4105 77.3732 44.9167 81.5833 44.9167C91.2023 44.9167 99 52.7144 99 62.3333C99 71.6448 91.6933 79.2496 82.5 79.7263V79.75H81.5833H17.4167H15.5833V79.6547C6.82611 78.7386 0 71.3331 0 62.3333C0 53.315 6.85439 45.8975 15.6377 45.0064C16.5371 30.631 28.4812 19.25 43.0833 19.25C58.2711 19.25 70.5833 31.5622 70.5833 46.75Z" fill="url(#paint1_linear_51_36)"/>
</g>
</g>
<defs>
<filter id="filter0_f_51_36" x="-1.83325" y="50.4167" width="101.75" height="61.4167" filterUnits="userSpaceOnUse" color-interpolation-filters="sRGB">
<feFlood flood-opacity="0" result="BackgroundImageFix"/>
<feBlend mode="normal" in="SourceGraphic" in2="BackgroundImageFix" result="shape"/>
<feGaussianBlur stdDeviation="11" result="effect1_foregroundBlur_51_36"/>
</filter>
<filter id="filter1_dii_51_36" x="42.1667" y="3.66667" width="69.6667" height="69.6667" filterUnits="userSpaceOnUse" color-interpolation-filters="sRGB">
<feFlood flood-opacity="0" result="BackgroundImageFix"/>
<feColorMatrix in="SourceAlpha" type="matrix" values="0 0 0 0 0 0 0 0 0 0 0 0 0 0 0 0 0 0 127 0" result="hardAlpha"/>
<feOffset/>
<feGaussianBlur stdDeviation="5.5"/>
<feComposite in2="hardAlpha" operator="out"/>
<feColorMatrix type="matrix" values="0 0 0 0 0.992157 0 0 0 0 0.772549 0 0 0 0 0 0 0 0 0.45 0"/>
<feBlend mode="normal" in2="BackgroundImageFix" result="effect1_dropShadow_51_36"/>
<feBlend mode="normal" in="SourceGraphic" in2="effect1_dropShadow_51_36" result="shape"/>
<feColorMatrix in="SourceAlpha" type="matrix" values="0 0 0 0 0 0 0 0 0 0 0 0 0 0 0 0 0 0 127 0" result="hardAlpha"/>
<feOffset/>
<feGaussianBlur stdDeviation="8"/>
<feComposite in2="hardAlpha" operator="arithmetic" k2="-1" k3="1"/>
<feColorMatrix type="matrix" values="0 0 0 0 0.992157 0 0 0 0 0.773882 0 0 0 0 0 0 0 0 1 0"/>
<feBlend mode="normal" in2="shape" result="effect2_innerShadow_51_36"/>
<feColorMatrix in="SourceAlpha" type="matrix" values="0 0 0 0 0 0 0 0 0 0 0 0 0 0 0 0 0 0 127 0" result="hardAlpha"/>
<feOffset dx="-1" dy="3"/>
<feGaussianBlur stdDeviation="2.5"/>
<feComposite in2="hardAlpha" operator="arithmetic" k2="-1" k3="1"/>
<feColorMatrix type="matrix" values="0 0 0 0 1 0 0 0 0 0.9 0 0 0 0 0 0 0 0 0.35 0"/>
<feBlend mode="normal" in2="effect2_innerShadow_51_36" result="effect3_innerShadow_51_36"/>
</filter>
<filter id="filter2_i_51_36" x="0" y="19.25" width="99" height="62.5" filterUnits="userSpaceOnUse" color-interpolation-filters="sRGB">
<feFlood flood-opacity="0" result="BackgroundImageFix"/>
<feBlend mode="normal" in="SourceGraphic" in2="BackgroundImageFix" result="shape"/>
<feColorMatrix in="SourceAlpha" type="matrix" values="0 0 0 0 0 0 0 0 0 0 0 0 0 0 0 0 0 0 127 0" result="hardAlpha"/>
<feOffset dy="2"/>
<feGaussianBlur stdDeviation="4"/>
<feComposite in2="hardAlpha" operator="arithmetic" k2="-1" k3="1"/>
<feColorMatrix type="matrix" values="0 0 0 0 0 0 0 0 0 0.82 0 0 0 0 1 0 0 0 0.25 0"/>
<feBlend mode="normal" in2="shape" result="effect1_innerShadow_51_36"/>
</filter>
<linearGradient id="paint0_linear_51_36" x1="77.0001" y1="14.6667" x2="77.0001" y2="62.3333" gradientUnits="userSpaceOnUse">
<stop stop-color="#FDC500"/>
<stop offset="1" stop-color="#FD8900"/>
</linearGradient>
<linearGradient id="paint1_linear_51_36" x1="51.3333" y1="101.292" x2="88.4583" y2="19.25" gradientUnits="userSpaceOnUse">
<stop stop-color="#0082DF"/>
<stop offset="0.299998" stop-color="#48B2FF" stop-opacity="0.75"/>
<stop offset="1" stop-color="#3BADFF" stop-opacity="0"/>
</linearGradient>
<clipPath id="clip0_51_36">
<rect width="110" height="110" fill="white"/>
</clipPath>
</defs>
</svg>
