<svg width="111" height="111" viewBox="0 0 111 111" fill="none" xmlns="http://www.w3.org/2000/svg">
<g filter="url(#filter0_f_51_63)">
<path d="M55 82.5C72.397 82.5 86.5 78.2467 86.5 73C86.5 67.7533 72.397 63.5 55 63.5C37.603 63.5 23.5 67.7533 23.5 73C23.5 78.2467 37.603 82.5 55 82.5Z" fill="#004E67" fill-opacity="0.7"/>
</g>
<g filter="url(#filter1_i_51_63)">
<path fill-rule="evenodd" clip-rule="evenodd" d="M78.5 35.5C78.5 36.2882 78.4696 37.0693 78.4099 37.8422C81.6949 35.1296 85.9071 33.5 90.5 33.5C100.993 33.5 109.5 42.0066 109.5 52.5C109.5 62.658 101.529 70.9541 91.5 71.4741V71.5H90.5H20.5H18.5V71.396C8.94667 70.3966 1.5 62.3179 1.5 52.5C1.5 42.6618 8.97752 34.57 18.5593 33.5979C19.5405 17.9156 32.5704 5.5 48.5 5.5C65.0685 5.5 78.5 18.9315 78.5 35.5Z" fill="url(#paint0_linear_51_63)"/>
</g>
<path fill-rule="evenodd" clip-rule="evenodd" d="M42.5 46.5C43.8807 46.5 45 47.6193 45 49V64C45 65.3807 43.8807 66.5 42.5 66.5C41.1193 66.5 40 65.3807 40 64V49C40 47.6193 41.1193 46.5 42.5 46.5ZM68.5 51.5C69.8807 51.5 71 52.6193 71 54V82C71 83.3807 69.8807 84.5 68.5 84.5C67.1193 84.5 66 83.3807 66 82V54C66 52.6193 67.1193 51.5 68.5 51.5ZM55.5 58.5C56.8807 58.5 58 59.6193 58 61V70C58 71.3807 56.8807 72.5 55.5 72.5C54.1193 72.5 53 71.3807 53 70V61C53 59.6193 54.1193 58.5 55.5 58.5ZM55.5 78.5C56.8807 78.5 58 79.6193 58 81V99C58 100.381 56.8807 101.5 55.5 101.5C54.1193 101.5 53 100.381 53 99V81C53 79.6193 54.1193 78.5 55.5 78.5ZM71 92C71 90.6193 69.8807 89.5 68.5 89.5C67.1193 89.5 66 90.6193 66 92V99C66 100.381 67.1193 101.5 68.5 101.5C69.8807 101.5 71 100.381 71 99V92ZM84 66C84 64.6193 82.8807 63.5 81.5 63.5C80.1193 63.5 79 64.6193 79 66V73C79 74.3807 80.1193 75.5 81.5 75.5C82.8807 75.5 84 74.3807 84 73V66ZM81.5 81.5C82.8807 81.5 84 82.6193 84 84V99C84 100.381 82.8807 101.5 81.5 101.5C80.1193 101.5 79 100.381 79 99V84C79 82.6193 80.1193 81.5 81.5 81.5ZM45 74C45 72.6193 43.8807 71.5 42.5 71.5C41.1193 71.5 40 72.6193 40 74V81C40 82.3807 41.1193 83.5 42.5 83.5C43.8807 83.5 45 82.3807 45 81V74ZM45 92C45 90.6193 43.8807 89.5 42.5 89.5C41.1193 89.5 40 90.6193 40 92V99C40 100.381 41.1193 101.5 42.5 101.5C43.8807 101.5 45 100.381 45 99V92ZM28.5 56.5C29.8807 56.5 31 57.6193 31 59V67C31 68.3807 29.8807 69.5 28.5 69.5C27.1193 69.5 26 68.3807 26 67V59C26 57.6193 27.1193 56.5 28.5 56.5ZM31 79C31 77.6193 29.8807 76.5 28.5 76.5C27.1193 76.5 26 77.6193 26 79V99C26 100.381 27.1193 101.5 28.5 101.5C29.8807 101.5 31 100.381 31 99V79Z" fill="url(#paint1_linear_51_63)"/>
<path fill-rule="evenodd" clip-rule="evenodd" d="M57.5002 71.5H53.4998C53.186 71.0822 53 70.5628 53 70V61C53 59.6193 54.1193 58.5 55.5 58.5C56.8807 58.5 58 59.6193 58 61V70C58 70.5628 57.814 71.0822 57.5002 71.5ZM71 71.5H66V54C66 52.6193 67.1193 51.5 68.5 51.5C69.8807 51.5 71 52.6193 71 54V71.5ZM84 71.5H79V66C79 64.6193 80.1193 63.5 81.5 63.5C82.8807 63.5 84 64.6193 84 66V71.5ZM45 49C45 47.6193 43.8807 46.5 42.5 46.5C41.1193 46.5 40 47.6193 40 49V64C40 65.3807 41.1193 66.5 42.5 66.5C43.8807 66.5 45 65.3807 45 64V49ZM31 59C31 57.6193 29.8807 56.5 28.5 56.5C27.1193 56.5 26 57.6193 26 59V67C26 68.3807 27.1193 69.5 28.5 69.5C29.8807 69.5 31 68.3807 31 67V59Z" fill="#A9DDFA"/>
<defs>
<filter id="filter0_f_51_63" x="1.5" y="41.5" width="107" height="63" filterUnits="userSpaceOnUse" color-interpolation-filters="sRGB">
<feFlood flood-opacity="0" result="BackgroundImageFix"/>
<feBlend mode="normal" in="SourceGraphic" in2="BackgroundImageFix" result="shape"/>
<feGaussianBlur stdDeviation="11" result="effect1_foregroundBlur_51_63"/>
</filter>
<filter id="filter1_i_51_63" x="1.5" y="5.5" width="108" height="68" filterUnits="userSpaceOnUse" color-interpolation-filters="sRGB">
<feFlood flood-opacity="0" result="BackgroundImageFix"/>
<feBlend mode="normal" in="SourceGraphic" in2="BackgroundImageFix" result="shape"/>
<feColorMatrix in="SourceAlpha" type="matrix" values="0 0 0 0 0 0 0 0 0 0 0 0 0 0 0 0 0 0 127 0" result="hardAlpha"/>
<feOffset dy="2"/>
<feGaussianBlur stdDeviation="4"/>
<feComposite in2="hardAlpha" operator="arithmetic" k2="-1" k3="1"/>
<feColorMatrix type="matrix" values="0 0 0 0 0 0 0 0 0 0.82 0 0 0 0 1 0 0 0 0.25 0"/>
<feBlend mode="normal" in2="shape" result="effect1_innerShadow_51_63"/>
</filter>
<linearGradient id="paint0_linear_51_63" x1="57.5" y1="95" x2="98" y2="5.5" gradientUnits="userSpaceOnUse">
<stop stop-color="#0082DF"/>
<stop offset="0.299998" stop-color="#48B2FF" stop-opacity="0.75"/>
<stop offset="1" stop-color="#3BADFF" stop-opacity="0"/>
</linearGradient>
<linearGradient id="paint1_linear_51_63" x1="55" y1="46.5" x2="55" y2="101.5" gradientUnits="userSpaceOnUse">
<stop offset="0.168182" stop-color="#D7F0FF"/>
<stop offset="1" stop-color="#0072DC"/>
</linearGradient>
</defs>
</svg>
