<svg width="100" height="100" viewBox="0 0 100 100" fill="none" xmlns="http://www.w3.org/2000/svg">
<path fill-rule="evenodd" clip-rule="evenodd" d="M28.6345 15L21.2098 30.5105C19.6224 33.9066 19.52 37.9616 21.3634 41.2563C22.6435 43.6387 24.8453 45.6155 28.6345 45.6155C32.4237 45.6155 34.5743 43.6387 35.8544 41.2563C37.6978 37.9616 37.5953 33.9066 36.008 30.5105L28.6345 15ZM51.8816 41.966L47.8876 50.2788C47.4485 51.1832 47.2291 52.1767 47.2469 53.18C47.2647 54.1833 47.5192 55.1686 47.99 56.0572C48.3387 56.7789 48.8927 57.384 49.5841 57.7982C50.2754 58.2125 51.074 58.4177 51.8816 58.3888C52.6868 58.4051 53.48 58.1946 54.169 57.7818C54.858 57.369 55.4143 56.7709 55.7732 56.0572C56.236 55.1646 56.4817 54.1773 56.4905 53.174C56.4994 52.1707 56.2713 51.1793 55.8244 50.2788L51.8816 41.966ZM66.014 28.2295L72.3122 15L78.6104 28.2295C79.3153 29.6613 79.6732 31.2361 79.6554 32.8288C79.6376 34.4215 79.2447 35.9881 78.5079 37.4041C77.9107 38.5176 77.0184 39.4491 75.9269 40.0988C74.8354 40.7484 73.5858 41.0916 72.3122 41.0916C71.0385 41.0916 69.789 40.7484 68.6974 40.0988C67.6059 39.4491 66.7137 38.5176 66.1164 37.4041C65.3796 35.9881 64.9867 34.4215 64.969 32.8288C64.9512 31.2361 65.309 29.6613 66.014 28.2295ZM37.2369 63.7618L33.6014 71.4664C33.1786 72.2836 32.9624 73.1902 32.9714 74.1084C32.9803 75.0265 33.214 75.9288 33.6526 76.7379C33.9711 77.407 34.4798 77.9696 35.1165 78.3567C35.7531 78.7438 36.49 78.9387 37.2369 78.9175C37.9813 78.9262 38.713 78.7261 39.3473 78.3404C39.9816 77.9547 40.4926 77.3991 40.8213 76.7379C41.2476 75.925 41.4744 75.0241 41.4833 74.1082C41.4922 73.1923 41.2829 72.2872 40.8725 71.4664L37.2369 63.7618ZM65.7067 71.517L72.3121 57.6792L78.9175 71.517C79.647 73.0228 80.0172 74.6743 79.9994 76.3442C79.9817 78.014 79.5765 79.6575 78.8151 81.1477C77.6374 83.2259 75.6916 85 72.3121 85C68.9326 85 66.9868 83.2259 65.8091 81.1477C65.0478 79.6575 64.6426 78.014 64.6248 76.3442C64.6071 74.6743 64.9772 73.0228 65.7067 71.517Z" fill="url(#paint0_linear_19_851)"/>
<defs>
<linearGradient id="paint0_linear_19_851" x1="55" y1="-11.5" x2="50" y2="85" gradientUnits="userSpaceOnUse">
<stop stop-color="#D7F0FF"/>
<stop offset="1" stop-color="#0072DC"/>
</linearGradient>
</defs>
</svg>
