<svg width="110" height="110" viewBox="0 0 110 110" fill="none" xmlns="http://www.w3.org/2000/svg">
<g filter="url(#filter0_f_51_81)">
<path d="M54.5 82C71.897 82 86 77.7467 86 72.5C86 67.2533 71.897 63 54.5 63C37.103 63 23 67.2533 23 72.5C23 77.7467 37.103 82 54.5 82Z" fill="#004E67" fill-opacity="0.7"/>
</g>
<path d="M33.8068 80.2814L46.9075 56.2315C46.9852 56.0888 47.1347 56 47.2972 56H64.2813C64.6113 56 64.8259 56.3474 64.6781 56.6426L57.8723 70.2324C57.7245 70.5276 57.939 70.875 58.2691 70.875H64.9999L27.8783 103.356C27.5052 103.683 26.9589 103.245 27.1966 102.81L38.7872 81.5941C38.9488 81.2983 38.7348 80.9375 38.3978 80.9375H34.1965C33.8597 80.9375 33.6457 80.5771 33.8068 80.2814Z" fill="url(#paint0_linear_51_81)"/>
<g filter="url(#filter1_i_51_81)">
<path fill-rule="evenodd" clip-rule="evenodd" d="M78 35C78 35.7882 77.9696 36.5693 77.9099 37.3422C81.1949 34.6296 85.4071 33 90 33C100.493 33 109 41.5066 109 52C109 62.158 101.029 70.4541 91 70.9741V71H90H20H18V70.896C8.44667 69.8966 1 61.8179 1 52C1 42.1618 8.47752 34.07 18.0593 33.0979C19.0405 17.4156 32.0704 5 48 5C64.5685 5 78 18.4315 78 35Z" fill="url(#paint1_linear_51_81)"/>
</g>
<defs>
<filter id="filter0_f_51_81" x="1" y="41" width="107" height="63" filterUnits="userSpaceOnUse" color-interpolation-filters="sRGB">
<feFlood flood-opacity="0" result="BackgroundImageFix"/>
<feBlend mode="normal" in="SourceGraphic" in2="BackgroundImageFix" result="shape"/>
<feGaussianBlur stdDeviation="11" result="effect1_foregroundBlur_51_81"/>
</filter>
<filter id="filter1_i_51_81" x="1" y="5" width="108" height="68" filterUnits="userSpaceOnUse" color-interpolation-filters="sRGB">
<feFlood flood-opacity="0" result="BackgroundImageFix"/>
<feBlend mode="normal" in="SourceGraphic" in2="BackgroundImageFix" result="shape"/>
<feColorMatrix in="SourceAlpha" type="matrix" values="0 0 0 0 0 0 0 0 0 0 0 0 0 0 0 0 0 0 127 0" result="hardAlpha"/>
<feOffset dy="2"/>
<feGaussianBlur stdDeviation="4"/>
<feComposite in2="hardAlpha" operator="arithmetic" k2="-1" k3="1"/>
<feColorMatrix type="matrix" values="0 0 0 0 0 0 0 0 0 0.82 0 0 0 0 1 0 0 0 0.25 0"/>
<feBlend mode="normal" in2="shape" result="effect1_innerShadow_51_81"/>
</filter>
<linearGradient id="paint0_linear_51_81" x1="45.4999" y1="56" x2="45.4999" y2="105" gradientUnits="userSpaceOnUse">
<stop stop-color="#F8FD00"/>
<stop offset="1" stop-color="#FD9800"/>
</linearGradient>
<linearGradient id="paint1_linear_51_81" x1="57" y1="94.5" x2="78" y2="8.35519e-07" gradientUnits="userSpaceOnUse">
<stop stop-color="#FFEC45" stop-opacity="0.5"/>
<stop offset="0.463847" stop-color="#48B2FF" stop-opacity="0.65"/>
<stop offset="1" stop-color="#0082DF"/>
</linearGradient>
</defs>
</svg>
