<svg width="110" height="110" viewBox="0 0 110 110" fill="none" xmlns="http://www.w3.org/2000/svg">
<g filter="url(#filter0_f_51_93)">
<path d="M54.5 80C71.897 80 86 75.7467 86 70.5C86 65.2533 71.897 61 54.5 61C37.103 61 23 65.2533 23 70.5C23 75.7467 37.103 80 54.5 80Z" fill="#004E67" fill-opacity="0.7"/>
</g>
<path fill-rule="evenodd" clip-rule="evenodd" d="M42.8154 58.8156C42.8154 57.2606 41.5549 56 39.9998 56C38.4448 56 37.1842 57.2606 37.1842 58.8156V62.2024L34.7894 59.8076C33.6898 58.708 31.907 58.708 30.8075 59.8076C29.708 60.9071 29.708 62.6899 30.8075 63.7894L33.2025 66.1844H29.8156C28.2606 66.1844 27 67.445 27 69C27 70.555 28.2606 71.8156 29.8156 71.8156H33.2023L30.8074 74.2105C29.7079 75.3101 29.7079 77.0928 30.8074 78.1924C31.907 79.2919 33.6897 79.2919 34.7893 78.1924L37.1842 75.7974V79.1844C37.1842 80.7394 38.4448 82 39.9998 82C41.5549 82 42.8154 80.7394 42.8154 79.1844V75.7974L45.2104 78.1924C46.31 79.2919 48.0928 79.2919 49.1923 78.1924C50.2918 77.0928 50.2918 75.3101 49.1923 74.2105L46.7974 71.8156H50.1844C51.7394 71.8156 53 70.555 53 69C53 67.445 51.7394 66.1844 50.1844 66.1844H46.7973L49.1922 63.7894C50.2918 62.6899 50.2918 60.9071 49.1922 59.8076C48.0927 58.708 46.3099 58.708 45.2104 59.8076L42.8154 62.2025V58.8156Z" fill="url(#paint0_linear_51_93)"/>
<path fill-rule="evenodd" clip-rule="evenodd" d="M77.239 53.2393C77.239 51.4503 75.7887 50 73.9997 50C72.2107 50 70.7605 51.4503 70.7605 53.2393V57.1794L67.9744 54.3934C66.7094 53.1283 64.6584 53.1283 63.3934 54.3934C62.1284 55.6584 62.1284 57.7094 63.3934 58.9744L66.1797 61.7607H62.2393C60.4503 61.7607 59 63.211 59 65C59 66.789 60.4503 68.2392 62.2393 68.2392H66.1794L63.3931 71.0255C62.1281 72.2906 62.1281 74.3415 63.3931 75.6066C64.6582 76.8716 66.7091 76.8716 67.9741 75.6066L70.7605 72.8202V76.7607C70.7605 78.5497 72.2107 80 73.9997 80C75.7887 80 77.239 78.5497 77.239 76.7607V72.82L80.0256 75.6066C81.2906 76.8716 83.3416 76.8716 84.6066 75.6066C85.8716 74.3415 85.8716 72.2906 84.6066 71.0255L81.8203 68.2392H85.7607C87.5497 68.2392 89 66.789 89 65C89 63.211 87.5497 61.7607 85.7607 61.7607H81.82L84.6063 58.9744C85.8713 57.7094 85.8713 55.6584 84.6063 54.3934C83.3413 53.1283 81.2903 53.1283 80.0253 54.3934L77.239 57.1796V53.2393Z" fill="url(#paint1_linear_51_93)"/>
<path fill-rule="evenodd" clip-rule="evenodd" d="M64.3753 86.3755C64.3753 85.0635 63.3117 84 61.9998 84C60.6879 84 59.6243 85.0635 59.6243 86.3755V89.2649L57.5812 87.2218C56.6535 86.2941 55.1495 86.2941 54.2218 87.2218C53.2941 88.1495 53.2941 89.6535 54.2218 90.5812L56.2651 92.6245H53.3755C52.0635 92.6245 51 93.6881 51 95C51 96.3119 52.0635 97.3754 53.3755 97.3754H56.2649L54.2216 99.4187C53.2939 100.346 53.2939 101.85 54.2216 102.778C55.1493 103.706 56.6534 103.706 57.581 102.778L59.6243 100.735V103.625C59.6243 104.937 60.6879 106 61.9998 106C63.3117 106 64.3753 104.937 64.3753 103.625V100.735L66.4187 102.778C67.3464 103.706 68.8505 103.706 69.7782 102.778C70.7059 101.85 70.7059 100.346 69.7782 99.4187L67.7349 97.3754H70.6245C71.9365 97.3754 73 96.3119 73 95C73 93.6881 71.9365 92.6245 70.6245 92.6245H67.7347L69.778 90.5812C70.7057 89.6535 70.7057 88.1495 69.778 87.2218C68.8503 86.2941 67.3462 86.2941 66.4185 87.2218L64.3753 89.2651V86.3755Z" fill="url(#paint2_linear_51_93)"/>
<g filter="url(#filter1_i_51_93)">
<path fill-rule="evenodd" clip-rule="evenodd" d="M78 33C78 33.7882 77.9696 34.5693 77.9099 35.3422C81.1949 32.6296 85.4071 31 90 31C100.493 31 109 39.5066 109 50C109 60.158 101.029 68.4541 91 68.9741V69H90H20H18V68.896C8.44667 67.8966 1 59.8179 1 50C1 40.1618 8.47752 32.07 18.0593 31.0979C19.0405 15.4156 32.0704 3 48 3C64.5685 3 78 16.4315 78 33Z" fill="url(#paint3_linear_51_93)"/>
</g>
<path fill-rule="evenodd" clip-rule="evenodd" d="M53 69H27C27.0005 67.4453 28.2609 66.1852 29.8156 66.1852H33.2025L30.8075 63.79C29.708 62.6904 29.708 60.9075 30.8075 59.8079C31.907 58.7082 33.6898 58.7082 34.7894 59.8079L37.1842 62.2029V58.8158C37.1842 57.2607 38.4448 56 39.9998 56C41.5549 56 42.8154 57.2607 42.8154 58.8158V62.203L45.2104 59.8079C46.3099 58.7082 48.0927 58.7082 49.1922 59.8079C50.2918 60.9075 50.2918 62.6904 49.1922 63.79L46.7973 66.1852H50.1844C51.7391 66.1852 52.9995 67.4453 53 69Z" fill="#A9DDFA"/>
<defs>
<filter id="filter0_f_51_93" x="1" y="39" width="107" height="63" filterUnits="userSpaceOnUse" color-interpolation-filters="sRGB">
<feFlood flood-opacity="0" result="BackgroundImageFix"/>
<feBlend mode="normal" in="SourceGraphic" in2="BackgroundImageFix" result="shape"/>
<feGaussianBlur stdDeviation="11" result="effect1_foregroundBlur_51_93"/>
</filter>
<filter id="filter1_i_51_93" x="1" y="3" width="108" height="68" filterUnits="userSpaceOnUse" color-interpolation-filters="sRGB">
<feFlood flood-opacity="0" result="BackgroundImageFix"/>
<feBlend mode="normal" in="SourceGraphic" in2="BackgroundImageFix" result="shape"/>
<feColorMatrix in="SourceAlpha" type="matrix" values="0 0 0 0 0 0 0 0 0 0 0 0 0 0 0 0 0 0 127 0" result="hardAlpha"/>
<feOffset dy="2"/>
<feGaussianBlur stdDeviation="4"/>
<feComposite in2="hardAlpha" operator="arithmetic" k2="-1" k3="1"/>
<feColorMatrix type="matrix" values="0 0 0 0 0 0 0 0 0 0.82 0 0 0 0 1 0 0 0 0.25 0"/>
<feBlend mode="normal" in2="shape" result="effect1_innerShadow_51_93"/>
</filter>
<linearGradient id="paint0_linear_51_93" x1="30.7116" y1="76.7381" x2="55.4051" y2="55.8958" gradientUnits="userSpaceOnUse">
<stop stop-color="#0056D6"/>
<stop offset="1" stop-color="#ADD8FF"/>
</linearGradient>
<linearGradient id="paint1_linear_51_93" x1="63.2826" y1="73.9286" x2="91.7751" y2="49.8798" gradientUnits="userSpaceOnUse">
<stop stop-color="#0056D6"/>
<stop offset="1" stop-color="#ADD8FF"/>
</linearGradient>
<linearGradient id="paint2_linear_51_93" x1="54.1406" y1="101.548" x2="75.0351" y2="83.9119" gradientUnits="userSpaceOnUse">
<stop stop-color="#0056D6"/>
<stop offset="1" stop-color="#ADD8FF"/>
</linearGradient>
<linearGradient id="paint3_linear_51_93" x1="57" y1="92.5" x2="97.5" y2="3" gradientUnits="userSpaceOnUse">
<stop stop-color="#0082DF"/>
<stop offset="0.299998" stop-color="#48B2FF" stop-opacity="0.75"/>
<stop offset="1" stop-color="#3BADFF" stop-opacity="0"/>
</linearGradient>
</defs>
</svg>
