<svg width="111" height="111" viewBox="0 0 111 111" fill="none" xmlns="http://www.w3.org/2000/svg">
<g clip-path="url(#clip0_51_111)">
<g filter="url(#filter0_f_51_111)">
<path d="M46.5225 84C61.4341 84 73.5224 80.3543 73.5224 75.8571C73.5224 71.36 61.4341 67.7143 46.5225 67.7143C31.6108 67.7143 19.5225 71.36 19.5225 75.8571C19.5225 80.3543 31.6108 84 46.5225 84Z" fill="#004E67" fill-opacity="0.7"/>
</g>
<g filter="url(#filter1_i_51_111)">
<path fill-rule="evenodd" clip-rule="evenodd" d="M66.6655 43.7143C66.6655 44.3899 66.6394 45.0595 66.5883 45.7219C69.404 43.3969 73.0144 42.0001 76.9512 42.0001C85.9456 42.0001 93.2369 49.2914 93.2369 58.2858C93.2369 66.9926 86.4046 74.1036 77.8084 74.5493V74.5715H76.9512H16.9512H15.237V74.4823C7.04838 73.6257 0.665527 66.7011 0.665527 58.2858C0.665527 49.853 7.07483 42.9172 15.2878 42.084C16.1288 28.642 27.2973 18.0001 40.9512 18.0001C55.1528 18.0001 66.6655 29.5128 66.6655 43.7143Z" fill="url(#paint0_linear_51_111)"/>
</g>
<path fill-rule="evenodd" clip-rule="evenodd" d="M107.577 59.1945H97.1455C96.6577 59.1136 96.2138 58.8596 95.8931 58.478C95.5724 58.0963 95.3968 57.6119 95.3968 57.1111C95.3968 56.6104 95.5724 56.126 95.8931 55.7443C96.2138 55.3627 96.6577 55.1087 97.1455 55.0278H107.577C107.876 54.9783 108.181 54.9951 108.472 55.077C108.764 55.1589 109.035 55.304 109.265 55.5022C109.495 55.7003 109.68 55.9469 109.808 56.2247C109.934 56.5025 110 56.805 110 57.1111C110 57.4172 109.934 57.7197 109.808 57.9976C109.68 58.2754 109.495 58.522 109.265 58.7201C109.035 58.9183 108.764 59.0634 108.472 59.1453C108.181 59.2272 107.876 59.2441 107.577 59.1945ZM84.5124 59.1945H35.4864C35.1879 59.2441 34.8823 59.2272 34.5909 59.1453C34.2994 59.0634 34.0289 58.9183 33.7985 58.7202C33.5679 58.522 33.3827 58.2754 33.2557 57.9976C33.1287 57.7197 33.0629 57.4172 33.0629 57.1111C33.0629 56.805 33.1287 56.5025 33.2557 56.2247C33.3827 55.9469 33.5679 55.7003 33.7985 55.5022C34.0289 55.304 34.2994 55.1589 34.5909 55.077C34.8823 54.9951 35.1879 54.9783 35.4864 55.0278H84.5124C84.8109 54.9783 85.1165 54.9951 85.408 55.077C85.6995 55.1589 85.9699 55.304 86.2001 55.5022C86.4313 55.7003 86.6162 55.9469 86.7428 56.2247C86.8702 56.5025 86.936 56.805 86.936 57.1111C86.936 57.4172 86.8702 57.7197 86.7428 57.9976C86.6162 58.2754 86.4313 58.522 86.2001 58.7202C85.9699 58.9183 85.6995 59.0634 85.408 59.1453C85.1165 59.2272 84.8109 59.2441 84.5124 59.1945ZM26.9219 82H103.673C104.226 81.9999 104.756 81.7775 105.148 81.3816C105.539 80.9856 105.759 80.4487 105.759 79.8888C105.759 79.3289 105.539 78.7919 105.148 78.396C104.756 78 104.226 77.7776 103.673 77.7776H26.9219C26.3686 77.7776 25.8379 78 25.4466 78.396C25.0555 78.7919 24.8357 79.3289 24.8357 79.8888C24.8357 80.4487 25.0555 80.9856 25.4466 81.3816C25.8379 81.7775 26.3686 81.9999 26.9219 82ZM70.6226 68.8613H13.0321C12.7633 68.869 12.4958 68.8211 12.2459 68.7205C11.9961 68.6199 11.769 68.4688 11.5789 68.2764C11.3887 68.084 11.2394 67.8542 11.14 67.6013C11.0406 67.3485 10.9933 67.0777 11.0008 66.8057C10.9934 66.5311 11.0406 66.2578 11.1394 66.002C11.2382 65.7461 11.3866 65.513 11.576 65.3161C11.7653 65.1194 11.9918 64.963 12.2419 64.8562C12.492 64.7495 12.7607 64.6945 13.0321 64.6946H70.6226C71.1663 64.7091 71.683 64.9379 72.0624 65.3322C72.4418 65.7266 72.6541 66.2552 72.6539 66.8057C72.6539 67.3509 72.4399 67.8738 72.059 68.2593C71.678 68.6447 71.1613 68.8613 70.6226 68.8613ZM82.3711 68.8613H99.2259C99.4943 68.869 99.7618 68.8211 100.012 68.7205C100.261 68.6199 100.488 68.4688 100.678 68.2764C100.869 68.084 101.018 67.8542 101.118 67.6013C101.217 67.3485 101.264 67.0777 101.256 66.8057C101.264 66.5311 101.217 66.2578 101.118 66.002C101.019 65.7461 100.871 65.513 100.682 65.3161C100.493 65.1194 100.266 64.963 100.016 64.8562C99.766 64.7495 99.4968 64.6945 99.2259 64.6946H82.3711C81.8179 64.6946 81.2872 64.9169 80.8959 65.3129C80.5048 65.7088 80.2849 66.2458 80.2849 66.8057C80.2848 67.0804 80.3392 67.3524 80.4447 67.6054C80.5502 67.8585 80.7047 68.0876 80.8991 68.2793C81.0937 68.4708 81.3241 68.6212 81.5769 68.7211C81.8298 68.8211 82.0998 68.8687 82.3711 68.8613Z" fill="url(#paint1_linear_51_111)"/>
<path fill-rule="evenodd" clip-rule="evenodd" d="M92 64.7911C91.3657 66.3268 90.5085 67.7435 89.4689 68.9992H82.7066C82.434 69.0067 82.1627 68.9586 81.9087 68.8576C81.6547 68.7566 81.4232 68.6048 81.2277 68.4114C81.0324 68.2178 80.877 67.9864 80.771 67.7308C80.6651 67.4752 80.6105 67.2005 80.6106 66.9231C80.6106 66.3576 80.8314 65.8153 81.2245 65.4155C81.6176 65.0156 82.1507 64.7911 82.7066 64.7911H92ZM35.6015 59.2362H84.858C85.1579 59.2863 85.465 59.2693 85.7578 59.1866C86.0506 59.1038 86.3223 58.9573 86.5537 58.7571C86.7852 58.557 86.9717 58.308 87.0989 58.0274C87.227 57.7468 87.2931 57.4413 87.2931 57.1321C87.2931 56.823 87.227 56.5175 87.0989 56.2369C86.9717 55.9563 86.7852 55.7073 86.5537 55.5072C86.3223 55.307 86.0506 55.1605 85.7578 55.0777C85.465 54.995 85.1579 54.9781 84.858 55.028H35.6015C35.3016 54.9781 34.9946 54.995 34.7018 55.0777C34.4089 55.1605 34.1372 55.307 33.9057 55.5072C33.674 55.7073 33.488 55.9563 33.3603 56.2369C33.2327 56.5175 33.1666 56.823 33.1666 57.1321C33.1666 57.4413 33.2327 57.7468 33.3603 58.0274C33.488 58.308 33.674 58.557 33.9057 58.7571C34.1372 58.9573 34.4089 59.1038 34.7018 59.1866C34.9946 59.2693 35.3016 59.2863 35.6015 59.2362ZM13.0417 68.9992H70.9029C71.4442 68.9992 71.9633 68.7805 72.346 68.3912C72.7287 68.0018 72.9437 67.4738 72.9437 66.9231C72.9439 66.3672 72.7307 65.8333 72.3494 65.435C71.9682 65.0367 71.4492 64.8056 70.9029 64.7911H13.0417C12.769 64.7909 12.499 64.8464 12.2477 64.9543C11.9964 65.0621 11.7689 65.22 11.5787 65.4187C11.3885 65.6176 11.2393 65.853 11.14 66.1115C11.0408 66.3698 10.9934 66.6458 11.0008 66.9231C10.9932 67.1978 11.0408 67.4714 11.1406 67.7267C11.2405 67.9821 11.3906 68.2141 11.5816 68.4084C11.7727 68.6028 12.0007 68.7554 12.2518 68.857C12.5028 68.9586 12.7716 69.007 13.0417 68.9992Z" fill="#A9DDFA"/>
</g>
<defs>
<filter id="filter0_f_51_111" x="-2.47754" y="45.7143" width="98" height="60.2857" filterUnits="userSpaceOnUse" color-interpolation-filters="sRGB">
<feFlood flood-opacity="0" result="BackgroundImageFix"/>
<feBlend mode="normal" in="SourceGraphic" in2="BackgroundImageFix" result="shape"/>
<feGaussianBlur stdDeviation="11" result="effect1_foregroundBlur_51_111"/>
</filter>
<filter id="filter1_i_51_111" x="0.665527" y="18.0001" width="92.5713" height="58.5714" filterUnits="userSpaceOnUse" color-interpolation-filters="sRGB">
<feFlood flood-opacity="0" result="BackgroundImageFix"/>
<feBlend mode="normal" in="SourceGraphic" in2="BackgroundImageFix" result="shape"/>
<feColorMatrix in="SourceAlpha" type="matrix" values="0 0 0 0 0 0 0 0 0 0 0 0 0 0 0 0 0 0 127 0" result="hardAlpha"/>
<feOffset dy="2"/>
<feGaussianBlur stdDeviation="4"/>
<feComposite in2="hardAlpha" operator="arithmetic" k2="-1" k3="1"/>
<feColorMatrix type="matrix" values="0 0 0 0 0 0 0 0 0 0.82 0 0 0 0 1 0 0 0 0.25 0"/>
<feBlend mode="normal" in2="shape" result="effect1_innerShadow_51_111"/>
</filter>
<linearGradient id="paint0_linear_51_111" x1="48.6655" y1="94.7143" x2="83.3798" y2="18.0001" gradientUnits="userSpaceOnUse">
<stop stop-color="#0082DF"/>
<stop offset="0.299998" stop-color="#48B2FF" stop-opacity="0.75"/>
<stop offset="1" stop-color="#3BADFF" stop-opacity="0"/>
</linearGradient>
<linearGradient id="paint1_linear_51_111" x1="60.5002" y1="-14.6054" x2="60.5002" y2="84.4649" gradientUnits="userSpaceOnUse">
<stop stop-color="#D7F0FF"/>
<stop offset="1" stop-color="#0072DC"/>
</linearGradient>
<clipPath id="clip0_51_111">
<rect width="110" height="110" fill="white" transform="translate(0.5 0.5)"/>
</clipPath>
</defs>
</svg>
