<svg width="640" height="626" xmlns="http://www.w3.org/2000/svg" clip-rule="evenodd" version="1.1">

 <g>
  <title>Layer 1</title>
  <g stroke="null" stroke-width="0" id="svg_89">
   <g stroke="null" id="svg_3">
    <path stroke="null" id="svg_4" d="m313.02446,152.26943c-2.09477,-2.43923 -4.82288,-3.57525 -8.18269,-3.40841c-39.79243,-20.16673 -81.79746,-33.2322 -126.01345,-39.19675c-7.35624,-1.57111 -14.99396,-2.7073 -22.91154,-3.40841c-23.99001,-1.05439 -47.99149,-1.62258 -72.00769,-1.70421c-0.51878,-5.23515 0.02618,-10.34777 1.63654,-15.33786c12.75845,5.31082 25.85076,9.57134 39.27692,12.78155c25.62164,-0.62135 51.26129,-1.47346 76.9173,-2.55631c31.06641,-2.83699 59.43252,4.83194 85.09999,23.00679c11.117,8.73321 21.7545,18.10634 31.9125,28.11941c1.12594,1.41739 0.85264,2.55358 -0.81827,3.40841c-1.50071,-1.06888 -3.13724,-1.63706 -4.90961,-1.70421z" fill="#000000"/>
   </g>
   <g stroke="null" id="svg_5">
    <path stroke="null" id="svg_6" d="m542.13982,104.55164c-12.30513,-0.55387 -24.30587,0.01432 -36.00384,1.70421c-59.92676,3.10217 -116.659,18.44003 -170.19998,46.01358c-2.67901,1.22328 -5.40549,1.50737 -8.18269,0.8521c20.81186,-23.95722 45.90654,-40.99929 75.28076,-51.1262c12.19057,-1.82435 24.46461,-2.67646 36.82211,-2.55631c26.44319,1.81737 52.89946,2.66947 79.37211,2.55631c15.55693,-3.41574 30.83074,-7.67626 45.82307,-12.78155c0,5.11262 0,10.22524 0,15.33786c-7.63772,0 -15.27381,0 -22.91154,0z" fill="#000000"/>
   </g>
   <g stroke="null" id="svg_7">
    <path stroke="null" id="svg_8" d="m506.13598,106.25585c11.69798,-1.68989 23.69871,-2.25807 36.00384,-1.70421c0,0.56801 0,1.13619 0,1.70421c-7.1975,-0.3509 -14.29025,0.21712 -21.275,1.70421c-4.56103,-1.6645 -9.47065,-2.23251 -14.72884,-1.70421z" fill="#000000"/>
   </g>
   <g stroke="null" id="svg_9">
    <path stroke="null" id="svg_10" d="m83.9091,106.25585c12.8501,-0.55455 25.3958,0.01363 37.64038,1.70421c-18.83983,-0.55915 -37.38835,0.00886 -55.6423,1.70421c-0.88864,-0.10225 -1.43361,-0.67026 -1.63654,-1.70421c6.45614,-1.6887 13.0023,-2.25671 19.63846,-1.70421z" fill="#000000"/>
   </g>
   <g stroke="null" id="svg_11">
    <path stroke="null" id="svg_12" d="m83.9091,106.25585c0,-0.56801 0,-1.13619 0,-1.70421c24.0162,0.08163 48.01767,0.64981 72.00769,1.70421c-1.74782,1.59258 -3.92933,2.16059 -6.54615,1.70421c-9.27426,0 -18.54689,0 -27.82115,0c-12.24458,-1.69057 -24.79028,-2.25876 -37.64038,-1.70421z" fill="#000000"/>
   </g>
   <g stroke="null" id="svg_13">
    <path stroke="null" id="svg_14" d="m65.90718,109.66426c18.25395,-1.69534 36.80247,-2.26336 55.6423,-1.70421c9.27426,0 18.54689,0 27.82115,0c7.90775,1.5331 16.09044,2.66913 24.54807,3.40841c16.4243,2.56705 32.78968,5.69154 49.09615,9.37314c27.71805,8.20132 54.99423,17.57446 81.82691,28.11941c1.80019,1.8039 3.98333,3.22402 6.54615,4.26052c-78.57184,-13.35127 -157.12568,-27.26901 -235.66151,-41.75306c-1.74782,-1.59258 -3.92933,-2.16059 -6.54615,-1.70421c-1.09157,0 -2.18151,0 -3.27308,0z" fill="#000000"/>
   </g>
   <g stroke="null" id="svg_15">
    <path stroke="null" id="svg_16" d="m542.13982,106.25585c13.9384,-0.55574 27.57567,0.01244 40.91346,1.70421c-62.95108,12.63294 -126.23111,24.56239 -189.83844,35.78834c-1.62345,-0.29244 -2.71338,0.27574 -3.27308,1.70421c-17.56333,2.38793 -35.02028,4.94424 -52.36923,7.66893c58.03001,-28.4565 119.1269,-43.51027 183.29229,-45.16147c6.98475,-1.48709 14.0775,-2.0551 21.275,-1.70421z" fill="#000000"/>
   </g>
   <g stroke="null" id="svg_17">
    <path stroke="null" id="svg_18" d="m69.18025,109.66426c2.61682,-0.45639 4.79833,0.11163 6.54615,1.70421c-1.2094,-0.22325 -2.30097,0.06084 -3.27308,0.8521c76.79292,15.22163 153.71022,29.70739 230.7519,43.45727c2.5039,0.23842 4.14044,1.37444 4.90961,3.40841c-0.68244,1.06325 -1.77401,1.63144 -3.27308,1.70421c-86.15392,-16.29528 -172.34385,-32.48524 -258.57305,-48.56989c7.76046,-1.99 15.39819,-2.84211 22.91154,-2.55631z" fill="#000000"/>
   </g>
   <g stroke="null" id="svg_19">
    <path stroke="null" id="svg_20" d="m155.91678,106.25585c7.91757,0.70111 15.5553,1.83731 22.91154,3.40841c-2.11277,-0.40441 -3.74931,0.1636 -4.90961,1.70421c-8.45763,-0.73928 -16.64032,-1.87531 -24.54807,-3.40841c2.61682,0.45639 4.79833,-0.11163 6.54615,-1.70421z" fill="#000000"/>
   </g>
   <g stroke="null" id="svg_21">
    <path stroke="null" id="svg_22" d="m506.13598,106.25585c5.2582,-0.5283 10.16781,0.03971 14.72884,1.70421c-64.16539,1.65121 -125.26228,16.70497 -183.29229,45.16147c17.34894,-2.72469 34.8059,-5.281 52.36923,-7.66893c-16.08063,4.70975 -33.53594,8.11816 -52.36923,10.22524c-3.59711,0.15542 -4.14208,-0.98077 -1.63654,-3.40841c53.54099,-27.57355 110.27322,-42.91141 170.19998,-46.01358z" fill="#000000"/>
   </g>
   <g stroke="null" id="svg_23">
    <path stroke="null" id="svg_24" d="m586.32635,109.66426c5.15346,-0.49183 10.06307,0.36027 14.72884,2.55631c-86.33558,15.64632 -172.52714,31.83628 -258.57305,48.56989c-2.21751,-1.17283 -3.85405,-2.87704 -4.90961,-5.11262c18.83328,-2.10708 36.2886,-5.51549 52.36923,-10.22524c0.5597,-1.42847 1.64963,-1.99665 3.27308,-1.70421c1.26668,1.10279 2.90322,1.67097 4.90961,1.70421c63.11637,-11.04547 125.8498,-22.97492 188.2019,-35.78834z" fill="#000000"/>
   </g>
   <g stroke="null" id="svg_25">
    <path stroke="null" id="svg_26" d="m31.53987,116.48109c90.47438,16.46315 181.03059,32.36902 271.66536,47.71778c0,119.86196 0,239.72562 0,359.58757c-90.56439,-14.91351 -180.8473,-31.38808 -270.84709,-49.42199c-0.81827,-119.29275 -1.09157,-238.58721 -0.81827,-357.88337z" fill="#000000"/>
   </g>
   <g stroke="null" id="svg_27">
    <path stroke="null" id="svg_28" d="m612.51097,116.48109c3.26817,118.71332 4.3581,238.00778 3.27308,357.88337c-89.93924,16.6518 -179.94884,33.12637 -270.02882,49.42199c0,-119.86196 0,-239.72562 0,-359.58757c88.95731,-15.72318 177.87535,-31.62905 266.75574,-47.71778z" fill="#000000"/>
   </g>
   <g stroke="null" id="svg_29">
    <path stroke="null" id="svg_30" d="m612.51097,116.48109c1.16031,-1.5406 2.79684,-2.10861 4.90961,-1.70421c0.54497,120.14997 -0.00164,240.01192 -1.63654,359.58757c1.08502,-119.87559 -0.00491,-239.17005 -3.27308,-357.88337z" fill="#000000"/>
   </g>
   <g stroke="null" id="svg_31">
    <path stroke="null" id="svg_32" d="m583.05328,107.96006c1.09157,0.56801 2.18151,1.13619 3.27308,1.70421c-62.35211,12.81342 -125.08553,24.74286 -188.2019,35.78834c-2.0064,-0.03323 -3.64293,-0.60141 -4.90961,-1.70421c63.60733,-11.22595 126.88736,-23.15539 189.83844,-35.78834z" fill="#000000"/>
   </g>
   <g stroke="null" id="svg_33">
    <path stroke="null" id="svg_34" d="m173.9187,111.36847c1.16031,-1.5406 2.79684,-2.10861 4.90961,-1.70421c44.21599,5.96455 86.22102,19.03002 126.01345,39.19675c-26.83268,-10.54495 -54.10887,-19.91808 -81.82691,-28.11941c-16.30647,-3.6816 -32.67185,-6.80609 -49.09615,-9.37314z" fill="#000000"/>
   </g>
   <g stroke="null" id="svg_35">
    <path stroke="null" id="svg_36" d="m75.72641,111.36847c78.53584,14.48405 157.08967,28.40179 235.66151,41.75306c-2.56282,-1.0365 -4.74596,-2.45661 -6.54615,-4.26052c3.35981,-0.16684 6.08792,0.96918 8.18269,3.40841c0.18166,1.05218 0.72662,1.90428 1.63654,2.55631c-2.42862,1.12853 -4.61013,2.54864 -6.54615,4.26052c-0.76917,-2.03397 -2.40571,-3.16999 -4.90961,-3.40841c-77.04168,-13.74988 -153.95898,-28.23563 -230.7519,-43.45727c0.9721,-0.79126 2.06367,-1.07535 3.27308,-0.8521z" fill="#000000"/>
   </g>
   <g stroke="null" id="svg_37">
    <path stroke="null" id="svg_38" d="m316.29754,157.38205c4.93907,-0.28051 9.84869,0.00341 14.72884,0.8521c9.59502,2.79354 10.13999,6.20195 1.63654,10.22524c-6.00119,1.13619 -12.00074,1.13619 -18.00192,0c-2.45808,-0.99372 -4.63959,-2.41384 -6.54615,-4.26052c2.79848,-2.36408 5.52659,-4.63646 8.18269,-6.81683z" fill="#000000"/>
   </g>
   <g stroke="null" id="svg_39">
    <path stroke="null" id="svg_40" d="m339.20907,169.31149c1.6349,119.57565 2.18151,239.43761 1.63654,359.58757c-3.00305,7.96376 -8.73093,11.37217 -17.18365,10.22524c-7.3186,0.87255 -12.77318,-1.96836 -16.36538,-8.52103c-1.36324,-120.43457 -1.09157,-240.86573 0.81827,-361.29178c10.41493,4.53677 20.78076,4.53677 31.09423,0z" fill="#000000"/>
   </g>
   <g stroke="null" id="svg_41">
    <path stroke="null" id="svg_42" d="m339.20907,169.31149c0.09819,-0.92555 0.64316,-1.49357 1.63654,-1.70421c2.17987,120.71236 2.17987,241.14352 0,361.29178c0.54497,-120.14997 -0.00164,-240.01192 -1.63654,-359.58757z" fill="#000000"/>
   </g>
  </g>
 </g>
</svg>