<?xml version="1.0" encoding="UTF-8"?>
<!DOCTYPE svg PUBLIC "-//W3C//DTD SVG 1.1//EN" "http://www.w3.org/Graphics/SVG/1.1/DTD/svg11.dtd">
<svg xmlns="http://www.w3.org/2000/svg" version="1.1" width="640px" height="626px" style="shape-rendering:geometricPrecision; text-rendering:geometricPrecision; image-rendering:optimizeQuality; fill-rule:evenodd; clip-rule:evenodd" xmlns:xlink="http://www.w3.org/1999/xlink">
<g><path style="opacity:1" fill="#f6c950" d="M -0.5,-0.5 C 212.833,-0.5 426.167,-0.5 639.5,-0.5C 639.5,208.167 639.5,416.833 639.5,625.5C 426.167,625.5 212.833,625.5 -0.5,625.5C -0.5,416.833 -0.5,208.167 -0.5,-0.5 Z"/></g>
<g><path style="opacity:1" fill="#fefdfa" d="M 322.5,69.5 C 321.22,68.0687 319.553,67.4021 317.5,67.5C 293.185,55.6665 267.518,47.9999 240.5,44.5C 236.005,43.5781 231.338,42.9114 226.5,42.5C 211.841,41.8813 197.175,41.5479 182.5,41.5C 182.183,38.4281 182.516,35.4281 183.5,32.5C 191.296,35.6163 199.296,38.1163 207.5,40C 223.156,39.6354 238.823,39.1354 254.5,38.5C 273.483,36.8353 290.816,41.3353 306.5,52C 313.293,57.1245 319.793,62.6245 326,68.5C 326.688,69.3317 326.521,69.9984 325.5,70.5C 324.583,69.8728 323.583,69.5394 322.5,69.5 Z"/></g>
<g><path style="opacity:1" fill="#fefdfa" d="M 462.5,41.5 C 454.981,41.175 447.648,41.5084 440.5,42.5C 403.882,44.3203 369.216,53.3203 336.5,69.5C 334.863,70.2178 333.197,70.3845 331.5,70C 344.217,55.9423 359.551,45.9423 377.5,40C 384.949,38.9295 392.449,38.4295 400,38.5C 416.158,39.5664 432.324,40.0664 448.5,40C 458.006,37.9957 467.339,35.4957 476.5,32.5C 476.5,35.5 476.5,38.5 476.5,41.5C 471.833,41.5 467.167,41.5 462.5,41.5 Z"/></g>
<g><path style="opacity:1" fill="#f8d984" d="M 440.5,42.5 C 447.648,41.5084 454.981,41.175 462.5,41.5C 462.5,41.8333 462.5,42.1667 462.5,42.5C 458.102,42.2941 453.768,42.6274 449.5,43.5C 446.713,42.5233 443.713,42.19 440.5,42.5 Z"/></g>
<g><path style="opacity:1" fill="#fcecc3" d="M 182.5,42.5 C 190.352,42.1746 198.018,42.508 205.5,43.5C 193.988,43.1719 182.654,43.5052 171.5,44.5C 170.957,44.44 170.624,44.1067 170.5,43.5C 174.445,42.5091 178.445,42.1758 182.5,42.5 Z"/></g>
<g><path style="opacity:1" fill="#f8d67c" d="M 182.5,42.5 C 182.5,42.1667 182.5,41.8333 182.5,41.5C 197.175,41.5479 211.841,41.8813 226.5,42.5C 225.432,43.4345 224.099,43.7678 222.5,43.5C 216.833,43.5 211.167,43.5 205.5,43.5C 198.018,42.508 190.352,42.1746 182.5,42.5 Z"/></g>
<g><path style="opacity:1" fill="#fefefc" d="M 171.5,44.5 C 182.654,43.5052 193.988,43.1719 205.5,43.5C 211.167,43.5 216.833,43.5 222.5,43.5C 227.332,44.3996 232.332,45.0662 237.5,45.5C 247.536,47.0063 257.536,48.8397 267.5,51C 284.437,55.8124 301.104,61.3124 317.5,67.5C 318.6,68.5585 319.934,69.3918 321.5,70C 273.489,62.1657 225.489,53.999 177.5,45.5C 176.432,44.5655 175.099,44.2322 173.5,44.5C 172.833,44.5 172.167,44.5 171.5,44.5 Z"/></g>
<g><path style="opacity:1" fill="#fefdfa" d="M 462.5,42.5 C 471.017,42.1739 479.35,42.5073 487.5,43.5C 449.034,50.9128 410.367,57.9128 371.5,64.5C 370.508,64.3284 369.842,64.6618 369.5,65.5C 358.768,66.9012 348.101,68.4012 337.5,70C 372.959,53.3022 410.292,44.4689 449.5,43.5C 453.768,42.6274 458.102,42.2941 462.5,42.5 Z"/></g>
<g><path style="opacity:1" fill="#fef9ee" d="M 173.5,44.5 C 175.099,44.2322 176.432,44.5655 177.5,45.5C 176.761,45.369 176.094,45.5357 175.5,46C 222.424,54.9318 269.424,63.4318 316.5,71.5C 318.03,71.6399 319.03,72.3065 319.5,73.5C 319.083,74.1239 318.416,74.4573 317.5,74.5C 264.856,64.9382 212.19,55.4382 159.5,46C 164.242,44.8323 168.909,44.3323 173.5,44.5 Z"/></g>
<g><path style="opacity:1" fill="#fbe3a6" d="M 226.5,42.5 C 231.338,42.9114 236.005,43.5781 240.5,44.5C 239.209,44.2627 238.209,44.596 237.5,45.5C 232.332,45.0662 227.332,44.3996 222.5,43.5C 224.099,43.7678 225.432,43.4345 226.5,42.5 Z"/></g>
<g><path style="opacity:1" fill="#f9d67c" d="M 440.5,42.5 C 443.713,42.19 446.713,42.5233 449.5,43.5C 410.292,44.4689 372.959,53.3022 337.5,70C 348.101,68.4012 358.768,66.9012 369.5,65.5C 359.674,68.2636 349.008,70.2636 337.5,71.5C 335.302,71.5912 334.969,70.9245 336.5,69.5C 369.216,53.3203 403.882,44.3203 440.5,42.5 Z"/></g>
<g><path style="opacity:1" fill="#fefaf0" d="M 489.5,44.5 C 492.649,44.2114 495.649,44.7114 498.5,46C 445.745,55.181 393.078,64.681 340.5,74.5C 339.145,73.8118 338.145,72.8118 337.5,71.5C 349.008,70.2636 359.674,68.2636 369.5,65.5C 369.842,64.6618 370.508,64.3284 371.5,64.5C 372.274,65.1471 373.274,65.4805 374.5,65.5C 413.067,59.0187 451.4,52.0187 489.5,44.5 Z"/></g>
<g><path style="opacity:1" fill="#fefefe" d="M 150.5,48.5 C 205.784,58.1603 261.118,67.4936 316.5,76.5C 316.5,146.833 316.5,217.167 316.5,287.5C 261.161,278.749 205.994,269.082 151,258.5C 150.5,188.501 150.333,118.501 150.5,48.5 Z"/></g>
<g><path style="opacity:1" fill="#fffefe" d="M 505.5,48.5 C 507.497,118.159 508.163,188.159 507.5,258.5C 452.543,268.271 397.543,277.938 342.5,287.5C 342.5,217.167 342.5,146.833 342.5,76.5C 396.857,67.2739 451.19,57.9406 505.5,48.5 Z"/></g>
<g><path style="opacity:1" fill="#f9de96" d="M 505.5,48.5 C 506.209,47.596 507.209,47.2627 508.5,47.5C 508.833,118.002 508.499,188.335 507.5,258.5C 508.163,188.159 507.497,118.159 505.5,48.5 Z"/></g>
<g><path style="opacity:1" fill="#f9d883" d="M 487.5,43.5 C 488.167,43.8333 488.833,44.1667 489.5,44.5C 451.4,52.0187 413.067,59.0187 374.5,65.5C 373.274,65.4805 372.274,65.1471 371.5,64.5C 410.367,57.9128 449.034,50.9128 487.5,43.5 Z"/></g>
<g><path style="opacity:1" fill="#f8d67b" d="M 237.5,45.5 C 238.209,44.596 239.209,44.2627 240.5,44.5C 267.518,47.9999 293.185,55.6665 317.5,67.5C 301.104,61.3124 284.437,55.8124 267.5,51C 257.536,48.8397 247.536,47.0063 237.5,45.5 Z"/></g>
<g><path style="opacity:1" fill="#f9d882" d="M 177.5,45.5 C 225.489,53.999 273.489,62.1657 321.5,70C 319.934,69.3918 318.6,68.5585 317.5,67.5C 319.553,67.4021 321.22,68.0687 322.5,69.5C 322.611,70.1174 322.944,70.6174 323.5,71C 322.016,71.6622 320.683,72.4955 319.5,73.5C 319.03,72.3065 318.03,71.6399 316.5,71.5C 269.424,63.4318 222.424,54.9318 175.5,46C 176.094,45.5357 176.761,45.369 177.5,45.5 Z"/></g>
<g><path style="opacity:1" fill="#fefcf6" d="M 324.5,72.5 C 327.518,72.3354 330.518,72.502 333.5,73C 339.363,74.6392 339.696,76.6392 334.5,79C 330.833,79.6667 327.167,79.6667 323.5,79C 321.998,78.4169 320.665,77.5836 319.5,76.5C 321.21,75.1128 322.877,73.7794 324.5,72.5 Z"/></g>
<g><path style="opacity:1" fill="#fefefe" d="M 338.5,79.5 C 339.499,149.665 339.833,219.998 339.5,290.5C 337.665,295.173 334.165,297.173 329,296.5C 324.528,297.012 321.195,295.345 319,291.5C 318.167,220.831 318.333,150.164 319.5,79.5C 325.864,82.1621 332.198,82.1621 338.5,79.5 Z"/></g>
<g><path style="opacity:1" fill="#fbeabc" d="M 338.5,79.5 C 338.56,78.9569 338.893,78.6236 339.5,78.5C 340.832,149.332 340.832,219.999 339.5,290.5C 339.833,219.998 339.499,149.665 338.5,79.5 Z"/></g>
<g><path style="opacity:1" fill="#fffefc" d="M 505.5,361.5 C 505.167,400.172 505.5,438.839 506.5,477.5C 507.107,477.376 507.44,477.043 507.5,476.5C 515.793,458.581 524.626,440.914 534,423.5C 536.879,418.476 541.046,414.976 546.5,413C 558.162,412.5 569.829,412.333 581.5,412.5C 581.5,418.833 581.5,425.167 581.5,431.5C 566.163,431.333 550.83,431.5 535.5,432C 531.065,438.201 527.398,444.867 524.5,452C 542.372,474.762 560.705,497.096 579.5,519C 571.147,519.832 562.813,519.665 554.5,518.5C 541.847,502.517 528.847,486.85 515.5,471.5C 511.904,476.354 509.071,481.688 507,487.5C 506.5,498.161 506.333,508.828 506.5,519.5C 499.833,519.5 493.167,519.5 486.5,519.5C 486.167,469.496 486.5,419.496 487.5,369.5C 493.522,366.821 499.522,364.155 505.5,361.5 Z"/></g>
<g><path style="opacity:1" fill="#fcf0d2" d="M 505.5,361.5 C 506.167,399.833 506.833,438.167 507.5,476.5C 507.44,477.043 507.107,477.376 506.5,477.5C 505.5,438.839 505.167,400.172 505.5,361.5 Z"/></g>
<g><path style="opacity:1" fill="#fefefc" d="M 77.5,365.5 C 98.5026,365.333 119.503,365.5 140.5,366C 156.419,366.505 169.919,372.338 181,383.5C 192.067,405.965 186.234,422.465 163.5,433C 157.116,434.679 150.782,436.513 144.5,438.5C 158.791,439.765 172.124,443.931 184.5,451C 198.609,462.016 202.109,475.849 195,492.5C 188.996,502.494 180.496,509.661 169.5,514C 159.564,517.666 149.231,519.499 138.5,519.5C 118.167,519.5 97.8333,519.5 77.5,519.5C 77.5,468.167 77.5,416.833 77.5,365.5 Z"/></g>
<g><path style="opacity:1" fill="#f6c951" d="M 99.5,369.5 C 111.876,369.157 124.209,369.657 136.5,371C 160.693,379.196 168.193,395.363 159,419.5C 152.617,428.948 143.783,434.781 132.5,437C 121.544,438.319 110.544,438.819 99.5,438.5C 99.5,415.5 99.5,392.5 99.5,369.5 Z"/></g>
<g><path style="opacity:1" fill="#fffefb" d="M 258.5,411.5 C 267.173,411.334 275.84,411.5 284.5,412C 311.044,415.877 326.211,431.044 330,457.5C 332.66,500.172 312.66,521.505 270,521.5C 234.031,520.53 215.864,502.03 215.5,466C 215.44,436.216 229.773,418.049 258.5,411.5 Z"/></g>
<g><path style="opacity:1" fill="#fffefc" d="M 391.5,411.5 C 406.955,410.083 421.955,411.916 436.5,417C 454.941,427.374 463.941,443.207 463.5,464.5C 464.738,495.758 450.071,514.591 419.5,521C 367.077,526.077 343.91,502.577 350,450.5C 355.667,428.759 369.5,415.759 391.5,411.5 Z"/></g>
<g><path style="opacity:1" fill="#f6c951" d="M 259.5,415.5 C 270.37,414.678 279.704,418.011 287.5,425.5C 303.268,444.637 310.768,466.637 310,491.5C 304.736,511.389 291.903,519.556 271.5,516C 265.318,513.472 259.985,509.805 255.5,505C 240.673,484.858 234.173,462.358 236,437.5C 240.186,426.143 248.02,418.81 259.5,415.5 Z"/></g>
<g><path style="opacity:1" fill="#f6c951" d="M 392.5,415.5 C 404.704,414.697 414.871,418.697 423,427.5C 439.923,449.246 445.923,473.579 441,500.5C 436.161,509.514 428.661,515.014 418.5,517C 408.601,518.358 399.934,515.692 392.5,509C 377.549,491.329 369.549,470.829 368.5,447.5C 368.567,430.779 376.567,420.113 392.5,415.5 Z"/></g>
<g><path style="opacity:1" fill="#f6c951" d="M 99.5,441.5 C 112.535,441.201 125.535,441.701 138.5,443C 163.874,446.69 175.374,461.19 173,486.5C 170.522,497.314 164.355,505.147 154.5,510C 148.929,512.08 143.262,513.747 137.5,515C 124.838,515.5 112.171,515.667 99.5,515.5C 99.5,490.833 99.5,466.167 99.5,441.5 Z"/></g>
<g><path style="opacity:1" fill="#fbe6af" d="M 77.5,365.5 C 77.5,416.833 77.5,468.167 77.5,519.5C 97.8333,519.5 118.167,519.5 138.5,519.5C 118.007,520.497 97.3401,520.831 76.5,520.5C 76.1678,468.664 76.5011,416.997 77.5,365.5 Z"/></g>
<g><path style="opacity:1" fill="#fbe4a9" d="M 102.5,555.5 C 108.979,554.509 115.646,554.176 122.5,554.5C 122.737,555.791 122.404,556.791 121.5,557.5C 115.588,555.544 109.255,554.877 102.5,555.5 Z"/></g>
<g><path style="opacity:1" fill="#fefcf7" d="M 102.5,555.5 C 109.255,554.877 115.588,555.544 121.5,557.5C 116.5,557.5 111.5,557.5 106.5,557.5C 106.5,561.167 106.5,564.833 106.5,568.5C 125.167,569.167 125.167,569.833 106.5,570.5C 106.5,575.5 106.5,580.5 106.5,585.5C 105.167,585.5 103.833,585.5 102.5,585.5C 102.5,575.5 102.5,565.5 102.5,555.5 Z"/></g>
<g><path style="opacity:1" fill="#fae4a8" d="M 180.5,585.5 C 180.5,575.5 180.5,565.5 180.5,555.5C 179.5,555.5 178.5,555.5 177.5,555.5C 177.5,565.5 177.5,575.5 177.5,585.5C 176.506,575.347 176.172,565.014 176.5,554.5C 178.167,554.5 179.833,554.5 181.5,554.5C 181.828,565.014 181.494,575.347 180.5,585.5 Z"/></g>
<g><path style="opacity:1" fill="#fefffe" d="M 180.5,585.5 C 179.5,585.5 178.5,585.5 177.5,585.5C 177.5,575.5 177.5,565.5 177.5,555.5C 178.5,555.5 179.5,555.5 180.5,555.5C 180.5,565.5 180.5,575.5 180.5,585.5 Z"/></g>
<g><path style="opacity:1" fill="#fefaf1" d="M 274.5,555.5 C 275.494,565.319 275.827,575.319 275.5,585.5C 267.535,578.036 259.702,570.369 252,562.5C 251.831,570.188 251.331,577.855 250.5,585.5C 249.334,575.517 249.168,565.517 250,555.5C 257.97,562.469 265.636,569.802 273,577.5C 273.171,569.989 273.671,562.655 274.5,555.5 Z"/></g>
<g><path style="opacity:1" fill="#fae3a5" d="M 274.5,555.5 C 274.56,554.957 274.893,554.624 275.5,554.5C 275.833,559.833 276.167,565.167 276.5,570.5C 276.525,576.25 276.192,581.25 275.5,585.5C 275.827,575.319 275.494,565.319 274.5,555.5 Z"/></g>
<g><path style="opacity:1" fill="#fefcf7" d="M 355.5,555.5 C 362.721,554.886 369.721,555.719 376.5,558C 381.691,563.69 382.858,570.19 380,577.5C 377.897,581.934 374.397,584.434 369.5,585C 364.845,585.499 360.179,585.666 355.5,585.5C 355.5,575.5 355.5,565.5 355.5,555.5 Z"/></g>
<g><path style="opacity:1" fill="#fefbf2" d="M 451.5,582.5 C 456.749,582.859 461.749,583.859 466.5,585.5C 460.167,585.5 453.833,585.5 447.5,585.5C 447.5,575.167 447.5,564.833 447.5,554.5C 453.842,554.334 460.175,554.5 466.5,555C 466.957,555.414 467.291,555.914 467.5,556.5C 462.208,557.495 456.875,557.828 451.5,557.5C 451.5,561.167 451.5,564.833 451.5,568.5C 468.833,569.167 468.833,569.833 451.5,570.5C 451.5,574.5 451.5,578.5 451.5,582.5 Z"/></g>
<g><path style="opacity:1" fill="#fefaef" d="M 531.5,554.5 C 535.846,554.334 540.179,554.501 544.5,555C 553.753,560.509 553.753,566.009 544.5,571.5C 547.343,577.168 551.343,581.668 556.5,585C 554.244,586.867 551.91,586.867 549.5,585C 546.743,580.821 543.743,576.821 540.5,573C 538.866,572.506 537.199,572.34 535.5,572.5C 535.5,576.833 535.5,581.167 535.5,585.5C 534.167,585.5 532.833,585.5 531.5,585.5C 531.5,575.167 531.5,564.833 531.5,554.5 Z"/></g>
<g><path style="opacity:1" fill="#f8d372" d="M 368.5,557.5 C 365.833,557.5 363.167,557.5 360.5,557.5C 360.5,566.167 360.5,574.833 360.5,583.5C 359.507,574.682 359.173,565.682 359.5,556.5C 362.713,556.19 365.713,556.523 368.5,557.5 Z"/></g>
<g><path style="opacity:1" fill="#f6c952" d="M 368.5,557.5 C 376.386,560.943 379.219,566.943 377,575.5C 373.551,582.307 368.051,584.974 360.5,583.5C 360.5,574.833 360.5,566.167 360.5,557.5C 363.167,557.5 365.833,557.5 368.5,557.5 Z"/></g>
<g><path style="opacity:1" fill="#f6cb57" d="M 535.5,556.5 C 539.059,556.408 542.392,557.241 545.5,559C 547.516,567.165 544.183,570.998 535.5,570.5C 535.5,565.833 535.5,561.167 535.5,556.5 Z"/></g>
<g><path style="opacity:1" fill="#f9de95" d="M 451.5,582.5 C 456.833,582.5 462.167,582.5 467.5,582.5C 467.737,583.791 467.404,584.791 466.5,585.5C 461.749,583.859 456.749,582.859 451.5,582.5 Z"/></g>
</svg>
