<?xml version="1.0" encoding="UTF-8"?>
<svg version="1.1" xmlns="http://www.w3.org/2000/svg" width="483" height="718">
<path d="M0 0 C159.39 0 318.78 0 483 0 C483 236.94 483 473.88 483 718 C323.61 718 164.22 718 0 718 C0 481.06 0 244.12 0 0 Z " fill="#ECF3F6" transform="translate(0,0)"/>
<path d="M0 0 C17 0 17 0 23 3 C24 4 24 4 24.09765625 6.06640625 C24.08605469 6.89011719 24.07445312 7.71382813 24.0625 8.5625 C24.05347656 9.38878906 24.04445312 10.21507812 24.03515625 11.06640625 C24.02355469 11.70449219 24.01195312 12.34257812 24 13 C22.02 13.99 22.02 13.99 20 15 C20 15.66 20 16.32 20 17 C21.65 17.66 23.3 18.32 25 19 C25.62422591 28.08595492 25.62422591 28.08595492 23.25 31.5625 C16.23608443 36.04361272 8.28886091 34 0 34 C0 22.78 0 11.56 0 0 Z " fill="#87898A" transform="translate(111,278)"/>
<path d="M0 0 C0.93585938 0.01804687 1.87171875 0.03609375 2.8359375 0.0546875 C5.14167015 0.10174327 7.44530945 0.16746287 9.75 0.25 C9.75 1.57 9.75 2.89 9.75 4.25 C8.76 4.25 7.77 4.25 6.75 4.25 C6.853125 5.466875 6.95625 6.68375 7.0625 7.9375 C7.03835757 11.34158213 6.78346812 12.19925801 4.8125 15.1875 C0.8252618 17.87278287 -2.52712767 18.1368157 -7.25 18.25 C-7.25 19.24 -7.25 20.23 -7.25 21.25 C-6.44175781 21.20359375 -5.63351562 21.1571875 -4.80078125 21.109375 C3.84977007 20.81719715 3.84977007 20.81719715 8 22.8125 C9.75 25.25 9.75 25.25 10.375 28.75 C9.75 32.25 9.75 32.25 7.4375 34.5625 C6.550625 35.119375 5.66375 35.67625 4.75 36.25 C3.76 36.91 2.77 37.57 1.75 38.25 C-1.60546875 38.4453125 -1.60546875 38.4453125 -5.4375 38.375 C-6.70980469 38.35695313 -7.98210937 38.33890625 -9.29296875 38.3203125 C-10.26878906 38.29710937 -11.24460937 38.27390625 -12.25 38.25 C-12.25 37.59 -12.25 36.93 -12.25 36.25 C-13.57 35.92 -14.89 35.59 -16.25 35.25 C-16.51527958 29.85598179 -16.51527958 29.85598179 -16.25 27.25 C-14.75 25.625 -14.75 25.625 -13.25 24.25 C-12.99994614 21.29182893 -12.99994614 21.29182893 -13.25 18.25 C-13.25 16.93 -13.25 15.61 -13.25 14.25 C-13.58 13.59 -13.91 12.93 -14.25 12.25 C-14.82036678 5.17745193 -14.82036678 5.17745193 -12.87109375 2.0078125 C-8.78176206 -0.73466032 -4.79980469 -0.1747828 0 0 Z " fill="#969799" transform="translate(275.25,343.75)"/>
<path d="M0 0 C2.31 0 4.62 0 7 0 C7.33 3.96 7.66 7.92 8 12 C8.99 11.01 9.98 10.02 11 9 C15.08965199 8.46985993 17.25026004 8.55015603 20.8125 10.6875 C25.06862278 15.18682979 25.42586222 19.47740388 25.3359375 25.484375 C24.81595014 29.37823385 23.22659312 31.7992724 21 35 C20.34 35 19.68 35 19 35 C19 35.66 19 36.32 19 37 C13.73946963 37.31563182 10.55426184 36.66590937 6 34 C6 34.66 6 35.32 6 36 C4.02 36 2.04 36 0 36 C0 24.12 0 12.24 0 0 Z " fill="#8A8C8D" transform="translate(312,392)"/>
<path d="M0 0 C5 0 5 0 8 1 C8.66 0.67 9.32 0.34 10 0 C11.70702735 -0.06996014 13.41668003 -0.08440154 15.125 -0.0625 C16.03507812 -0.05347656 16.94515625 -0.04445313 17.8828125 -0.03515625 C18.93082031 -0.01775391 18.93082031 -0.01775391 20 0 C20.33 0.99 20.66 1.98 21 3 C21.99 3 22.98 3 24 3 C24 2.34 24 1.68 24 1 C26.31277781 -0.15638891 27.80091221 -0.19868928 30.375 -0.25 C31.53128906 -0.28867187 31.53128906 -0.28867187 32.7109375 -0.328125 C35.65935486 0.09451503 36.86583209 0.92869948 39 3 C39.45410156 5.54370117 39.45410156 5.54370117 39.390625 8.54296875 C39.37773437 9.61611328 39.36484375 10.68925781 39.3515625 11.79492188 C39.31804687 12.91447266 39.28453125 14.03402344 39.25 15.1875 C39.23195312 16.31865234 39.21390625 17.44980469 39.1953125 18.61523438 C39.14812652 21.41100376 39.08230595 24.20507972 39 27 C36.69 27 34.38 27 32 27 C31.505 17.1 31.505 17.1 31 7 C28.525 6.505 28.525 6.505 26 6 C23.64641749 8.35358251 23.72128096 8.92968394 23.5859375 12.1328125 C23.54726562 12.93847656 23.50859375 13.74414062 23.46875 14.57421875 C23.42234375 15.83685547 23.42234375 15.83685547 23.375 17.125 C23.33632812 17.97449219 23.29765625 18.82398438 23.2578125 19.69921875 C23.16343506 21.79911684 23.08062414 23.89952891 23 26 C20.69 26 18.38 26 16 26 C15.67 19.4 15.34 12.8 15 6 C12.69 6.66 10.38 7.32 8 8 C7.67 13.94 7.34 19.88 7 26 C4.69 26 2.38 26 0 26 C0 17.42 0 8.84 0 0 Z " fill="#8B8B8B" transform="translate(187,344)"/>
<path d="M0 0 C3.35576078 1.92777747 4.65131299 3.26941769 6.3125 6.75 C7.36360663 11.7188677 7.87675961 16.02729088 5.75 20.8125 C3.14920432 24.0634946 0.94928155 25.68357282 -3 27 C-8.00020732 27.37038573 -11.05280378 27.20042937 -15 24 C-18.92624961 19.64929097 -19.63872211 16.07500679 -19.3828125 10.40234375 C-18.80097606 6.75102325 -17.49646118 4.69355022 -15 2 C-10.07456865 -1.55089237 -5.68441272 -1.53122557 0 0 Z " fill="#909192" transform="translate(190,286)"/>
<path d="M0 0 C3.52121839 2.04230667 4.75217677 3.62826516 7 7 C7.70522927 12.22361682 7.60457319 16.69784237 5.375 21.5 C1.70607536 25.36202594 -1.26464206 26.81733074 -6.5625 27.375 C-10.33638332 26.96330364 -12.09400598 26.42166168 -15 24 C-18.95595975 18.6799162 -18.82830718 12.35926156 -18 6 C-13.72599096 -1.26581537 -7.78338639 -0.76898611 0 0 Z " fill="#8C8D8E" transform="translate(288,286)"/>
<path d="M0 0 C3.28152067 2.89545942 4.80475759 5.69578947 5.4453125 10.0546875 C5.71950195 15.48363857 4.75069746 18.62775441 1.125 22.875 C-2.29421547 25.15447698 -3.77810177 25.20013105 -7.8125 25.25 C-8.85277344 25.27835937 -9.89304688 25.30671875 -10.96484375 25.3359375 C-14.58719774 24.76219553 -15.63885262 23.7264631 -17.875 20.875 C-20.84400312 16.2659761 -20.37730532 11.16490288 -19.875 5.875 C-18.59098104 2.56358268 -17.73417012 1.4056639 -14.75 -0.4375 C-9.65937777 -1.65482271 -4.92031396 -1.92534024 0 0 Z " fill="#88888B" transform="translate(160.875,287.125)"/>
<path d="M0 0 C2.31 0 4.62 0 7 0 C7.33 6.6 7.66 13.2 8 20 C9.134375 18.700625 10.26875 17.40125 11.4375 16.0625 C14.875 12.125 14.875 12.125 16 11 C18.67058851 10.85884839 21.32432238 10.95752893 24 11 C22.55089321 14.76767766 20.13242988 16.86244919 17.14453125 19.4375 C15.79448529 20.93385892 15.79448529 20.93385892 16.10546875 22.90234375 C17.21524119 25.5047359 18.69977881 27.38231409 20.5 29.5625 C22.63206859 32.15331286 23.93112292 33.79336875 25 37 C19.91860085 37.70088264 19.91860085 37.70088264 17 37 C14.44983536 34.66323826 12.61749942 32.05119209 11 29 C11 28.34 11 27.68 11 27 C10.01 27.33 9.02 27.66 8 28 C7.67 30.97 7.34 33.94 7 37 C4.36 37 1.72 37 -1 37 C-1.0246501 31.89136104 -1.04283607 26.78275641 -1.05493164 21.67407227 C-1.05997204 19.93480832 -1.0668043 18.19554864 -1.07543945 16.45629883 C-1.08751792 13.96174063 -1.09323108 11.46723827 -1.09765625 8.97265625 C-1.10281754 8.19036148 -1.10797882 7.40806671 -1.11329651 6.60206604 C-1.11349226 4.73432886 -1.06199694 2.86670796 -1 1 C-0.67 0.67 -0.34 0.34 0 0 Z " fill="#8F9091" transform="translate(204,275)"/>
<path d="M0 0 C1.68222656 -0.05607422 1.68222656 -0.05607422 3.3984375 -0.11328125 C7.57571698 0.43795781 9.0176751 0.95055046 11.625 4.3125 C12.23711739 8.24604981 12.09382847 12.094162 11.9375 16.0625 C11.91494141 17.14144531 11.89238281 18.22039062 11.86914062 19.33203125 C11.8102565 21.9935935 11.72807001 24.65234228 11.625 27.3125 C9.645 27.3125 7.665 27.3125 5.625 27.3125 C5.625 26.3225 5.625 25.3325 5.625 24.3125 C4.965 24.3125 4.305 24.3125 3.625 24.3125 C3.625 24.9725 3.625 25.6325 3.625 26.3125 C0.17082894 28.03958553 -3.5915556 27.66256959 -7.375 27.3125 C-9.875 26.3125 -9.875 26.3125 -11.375 24.3125 C-12.41232597 20.32916828 -12.68432891 17.24048674 -11.375 13.3125 C-6.49706417 10.06054278 -2.15108621 10.19924341 3.625 10.3125 C3.295 8.9925 2.965 7.6725 2.625 6.3125 C-1.005 6.3125 -4.635 6.3125 -8.375 6.3125 C-8.705 4.6625 -9.035 3.0125 -9.375 1.3125 C-6.08407406 0.21552469 -3.46387841 0.0753017 0 0 Z " fill="#8F9193" transform="translate(179.375,401.6875)"/>
<path d="M0 0 C1.68222656 -0.05607422 1.68222656 -0.05607422 3.3984375 -0.11328125 C7.55462967 0.4351751 9.01527078 0.98618465 11.625 4.3125 C12.234392 8.0808047 12.09440275 11.75821175 11.9375 15.5625 C11.91494141 16.59375 11.89238281 17.625 11.86914062 18.6875 C11.81027163 21.23064065 11.72810065 23.77083113 11.625 26.3125 C9.645 26.3125 7.665 26.3125 5.625 26.3125 C5.625 25.3225 5.625 24.3325 5.625 23.3125 C4.779375 23.9725 3.93375 24.6325 3.0625 25.3125 C-0.92181331 27.63064592 -2.84482582 28.05380123 -7.375 27.3125 C-10.76177089 24.86249553 -12.16198584 23.44857554 -12.9375 19.3125 C-12.24706143 15.63016096 -11.00686072 13.94436072 -8.375 11.3125 C-5.36009443 10.30753148 -3.33318308 10.20914697 -0.1875 10.25 C0.71355469 10.25902344 1.61460937 10.26804687 2.54296875 10.27734375 C3.23003906 10.28894531 3.91710937 10.30054688 4.625 10.3125 C3.965 8.9925 3.305 7.6725 2.625 6.3125 C-0.675 6.3125 -3.975 6.3125 -7.375 6.3125 C-7.375 5.6525 -7.375 4.9925 -7.375 4.3125 C-8.035 4.3125 -8.695 4.3125 -9.375 4.3125 C-9.375 3.3225 -9.375 2.3325 -9.375 1.3125 C-6.08407406 0.21552469 -3.46387841 0.0753017 0 0 Z " fill="#8D8E90" transform="translate(235.375,401.6875)"/>
<path d="M0 0 C1.12148437 -0.04898437 2.24296875 -0.09796875 3.3984375 -0.1484375 C6.625 0.375 6.625 0.375 9.51953125 2.22265625 C12.59643674 6.82945167 12.17342556 10.78298991 11.9375 16.1875 C11.91494141 17.16654297 11.89238281 18.14558594 11.86914062 19.15429688 C11.81039727 21.56277455 11.72832129 23.96809078 11.625 26.375 C8.95833333 26.375 6.29166667 26.375 3.625 26.375 C2.635 26.705 1.645 27.035 0.625 27.375 C-6.52393617 28.05585106 -6.52393617 28.05585106 -9.875 25.375 C-11.92562493 21.27375014 -11.89005571 18.93692201 -11.375 14.375 C-9.56336733 11.70068511 -8.49738923 11.41579641 -5.375 10.375 C-3.64704648 10.30697033 -1.91664635 10.29004355 -0.1875 10.3125 C0.71355469 10.32152344 1.61460937 10.33054687 2.54296875 10.33984375 C3.23003906 10.35144531 3.91710937 10.36304688 4.625 10.375 C4.295 9.055 3.965 7.735 3.625 6.375 C-0.335 6.375 -4.295 6.375 -8.375 6.375 C-8.705 4.725 -9.035 3.075 -9.375 1.375 C-6.09608972 0.28202991 -3.45125949 0.10266905 0 0 Z " fill="#8B8C8C" transform="translate(243.375,343.625)"/>
<path d="M0 0 C3.02158813 1.23330128 4.34384337 2.15637005 6.3125 4.6875 C7 7 7 7 7 15 C1.39 15 -4.22 15 -10 15 C-9.67 16.65 -9.34 18.3 -9 20 C-4.38 20 0.24 20 5 20 C5 21.65 5 23.3 5 25 C4.34 25 3.68 25 3 25 C3 25.66 3 26.32 3 27 C-7.59307508 27.61707233 -7.59307508 27.61707233 -12.5625 25.4375 C-16.46102544 21.53897456 -17.80234127 17.87775791 -18.375 12.4375 C-17.87420324 7.84686306 -16.65060581 4.53765045 -13.23046875 1.3515625 C-9.15185961 -1.11988892 -4.61170604 -0.50632974 0 0 Z " fill="#939496" transform="translate(345,286)"/>
<path d="M0 0 C3.12438916 1.63362694 3.4001059 2.6224458 5 6 C5.36636967 9.12940759 5.24029799 11.82806657 5 15 C-0.28 15 -5.56 15 -11 15 C-10.34 16.65 -9.68 18.3 -9 20 C-4.71 20 -0.42 20 4 20 C4 21.65 4 23.3 4 25 C-0.78213636 27.79519238 -5.60497921 27.77294799 -11 27 C-14.94418149 25.04735788 -17.35573245 22.04400938 -19 18 C-19.75257798 12.07711359 -19.41266803 7.05580449 -16 2 C-11.10356587 -1.26428942 -5.71031765 -0.7932982 0 0 Z " fill="#8D8F8F" transform="translate(307,344)"/>
<path d="M0 0 C3.20452995 1.74246316 5.02356979 3.14863594 7.0625 6.20703125 C7.3235788 9.23032381 7.15065181 12.16579367 7.0625 15.20703125 C1.4525 15.20703125 -4.1575 15.20703125 -9.9375 15.20703125 C-9.6075 16.85703125 -9.2775 18.50703125 -8.9375 20.20703125 C-4.3175 20.20703125 0.3025 20.20703125 5.0625 20.20703125 C5.0625 21.85703125 5.0625 23.50703125 5.0625 25.20703125 C-0.1599539 27.8182582 -5.19719365 27.99867531 -10.75 26.39453125 C-14.29010899 24.4727578 -15.65575194 23.05227542 -16.9375 19.20703125 C-17.10816284 17.08633564 -17.2037598 14.95908027 -17.25 12.83203125 C-17.28738281 11.71054687 -17.32476562 10.5890625 -17.36328125 9.43359375 C-16.85132741 5.55401697 -15.62365946 3.98840905 -12.9375 1.20703125 C-9.08403949 -1.58340567 -4.39116402 -1.79719011 0 0 Z " fill="#8D9092" transform="translate(372.9375,401.79296875)"/>
<path d="M0 0 C2.64 0 5.28 0 8 0 C8.33 6.93 8.66 13.86 9 21 C10.98 21 12.96 21 15 21 C15.88639389 18.34081834 16.17989025 16.51935359 16.31640625 13.76953125 C16.35830078 12.96708984 16.40019531 12.16464844 16.44335938 11.33789062 C16.48267578 10.50451172 16.52199219 9.67113281 16.5625 8.8125 C16.60568359 7.96751953 16.64886719 7.12253906 16.69335938 6.25195312 C16.79931518 4.16815567 16.9001502 2.08409897 17 0 C19.64 0 22.28 0 25 0 C25 8.91 25 17.82 25 27 C23.02 27 21.04 27 19 27 C19 26.01 19 25.02 19 24 C17.35 24.33 15.7 24.66 14 25 C14 25.66 14 26.32 14 27 C9.02666392 27.29254918 5.9563029 27.16504232 2 24 C0.13327371 20.99281175 -0.24033502 18.74613128 -0.1953125 15.234375 C-0.18886719 14.34492188 -0.18242188 13.45546875 -0.17578125 12.5390625 C-0.15902344 11.61867188 -0.14226562 10.69828125 -0.125 9.75 C-0.11597656 8.81414062 -0.10695313 7.87828125 -0.09765625 6.9140625 C-0.07413636 4.60911343 -0.04126853 2.3046884 0 0 Z " fill="#909394" transform="translate(104,402)"/>
<path d="M0 0 C5.64028777 2.92086331 5.64028777 2.92086331 7 7 C7.08106686 8.55421729 7.10756898 10.11167027 7.09765625 11.66796875 C7.09443359 12.56064453 7.09121094 13.45332031 7.08789062 14.37304688 C7.07951172 15.30181641 7.07113281 16.23058594 7.0625 17.1875 C7.05798828 18.12787109 7.05347656 19.06824219 7.04882812 20.03710938 C7.03704626 22.35813712 7.02059558 24.67903644 7 27 C5.02 27 3.04 27 1 27 C1 26.34 1 25.68 1 25 C0.01 25 -0.98 25 -2 25 C-2 25.66 -2 26.32 -2 27 C-5.21102274 28.60551137 -8.51699208 28.46807221 -12 28 C-14.5 26.5625 -14.5 26.5625 -16 24 C-16.3130292 20.96883395 -16.23343397 18.03464161 -16 15 C-12.28125 12.953125 -12.28125 12.953125 -9.75 13.375 C-9.1725 13.58125 -8.595 13.7875 -8 14 C-8 16.64 -8 19.28 -8 22 C-4.95613276 22.08226668 -2.92824652 21.97608217 0 21 C0 19.02 0 17.04 0 15 C-1.175625 15.0928125 -1.175625 15.0928125 -2.375 15.1875 C-3.674375 15.0946875 -3.674375 15.0946875 -5 15 C-5.66 14.01 -6.32 13.02 -7 12 C-4.69 12 -2.38 12 0 12 C-0.66 10.35 -1.32 8.7 -2 7 C-5.63 7 -9.26 7 -13 7 C-13.33 5.35 -13.66 3.7 -14 2 C-9.44911605 -0.34884333 -5.01276246 -0.7312114 0 0 Z " fill="#898B8C" transform="translate(298,401)"/>
<path d="M0 0 C1.98 0 3.96 0 6 0 C6.33 0.66 6.66 1.32 7 2 C7.495 1.67 7.99 1.34 8.5 1 C12.0284699 -0.41138796 15.24608743 -0.5087438 19 0 C22.23613354 1.74253345 22.82395315 2.47185944 24 6 C24.08106686 7.55421729 24.10756898 9.11167027 24.09765625 10.66796875 C24.09443359 11.56064453 24.09121094 12.45332031 24.08789062 13.37304688 C24.07951172 14.30181641 24.07113281 15.23058594 24.0625 16.1875 C24.05798828 17.12787109 24.05347656 18.06824219 24.04882812 19.03710938 C24.03704626 21.35813712 24.02059558 23.67903644 24 26 C21.69 26 19.38 26 17 26 C16.93941406 24.72382813 16.87882812 23.44765625 16.81640625 22.1328125 C16.73200432 20.46352984 16.64735614 18.79425963 16.5625 17.125 C16.52318359 16.28324219 16.48386719 15.44148438 16.44335938 14.57421875 C16.40146484 13.76855469 16.35957031 12.96289062 16.31640625 12.1328125 C16.27974854 11.38918457 16.24309082 10.64555664 16.20532227 9.87939453 C16.10044135 7.91135688 16.10044135 7.91135688 15 6 C12.69 6 10.38 6 8 6 C7.67 12.6 7.34 19.2 7 26 C4.69 26 2.38 26 0 26 C0 17.42 0 8.84 0 0 Z " fill="#919394" transform="translate(137,402)"/>
<path d="M0 0 C2.70894767 -0.08144943 5.41541263 -0.14070614 8.125 -0.1875 C8.88554688 -0.21263672 9.64609375 -0.23777344 10.4296875 -0.26367188 C15.39737498 -0.32790921 18.65837795 0.31522749 23 3 C24 4 24 4 24.1875 6.9375 C24 10 24 10 22 12 C21.67 12.66 21.34 13.32 21 14 C20.34 14 19.68 14 19 14 C19.33 15.98 19.66 17.96 20 20 C19.01 20.33 18.02 20.66 17 21 C17.04125 21.78375 17.0825 22.5675 17.125 23.375 C17 26 17 26 15 28 C12.31160615 28.26991906 9.70858064 28.08737357 7 28 C6.94604522 26.37536158 6.90722805 24.75021459 6.875 23.125 C6.85179688 22.22007812 6.82859375 21.31515625 6.8046875 20.3828125 C7 18 7 18 9 16 C9.66 16.33 10.32 16.66 11 17 C11 16.34 11 15.68 11 15 C9.68 14.67 8.36 14.34 7 14 C6.67 11.03 6.34 8.06 6 5 C4.02 5.66 2.04 6.32 0 7 C0 4.69 0 2.38 0 0 Z " fill="#8A898C" transform="translate(111,278)"/>
<path d="M0 0 C2.64 0 5.28 0 8 0 C9.98 5.28 11.96 10.56 14 16 C14.61875 14.1025 15.2375 12.205 15.875 10.25 C17.03842935 6.68214999 18.21801523 3.30710686 20 0 C22.31 0 24.62 0 27 0 C24.56696874 8.87842985 21.29163506 17.41405225 18 26 C15.36 26 12.72 26 10 26 C8.81417842 23.15402822 7.62873296 20.30790901 6.4453125 17.4609375 C5.48917402 15.17137347 4.52573749 12.8848422 3.5546875 10.6015625 C3.10351562 9.53679687 2.65234375 8.47203125 2.1875 7.375 C1.76855469 6.39273437 1.34960938 5.41046875 0.91796875 4.3984375 C0 2 0 2 0 0 Z " fill="#8B8D8E" transform="translate(298,286)"/>
<path d="M0 0 C2.31 0 4.62 0 7 0 C8.98 5.61 10.96 11.22 13 17 C13.99 13.37 14.98 9.74 16 6 C16.66 6 17.32 6 18 6 C18.33 4.02 18.66 2.04 19 0 C21.31 0 23.62 0 26 0 C25.41120511 4.76851167 24.0247208 8.62458346 22.0625 13 C20.14857936 17.28868703 18.41375714 21.51968751 17 26 C14.36 26 11.72 26 9 26 C7.4885202 22.42140185 5.99284249 18.83640839 4.5 15.25 C4.07074219 14.23421875 3.64148438 13.2184375 3.19921875 12.171875 C2.79316406 11.1921875 2.38710937 10.2125 1.96875 9.203125 C1.40317383 7.85202637 1.40317383 7.85202637 0.82617188 6.47363281 C0 4 0 4 0 0 Z " fill="#8F9092" transform="translate(195,402)"/>
<path d="M0 0 C3.99670192 -0.31346682 6.32674901 -0.40395059 9.8125 1.6875 C14.06862278 6.18682979 14.42586222 10.47740388 14.3359375 16.484375 C13.81595014 20.37823385 12.22659312 22.7992724 10 26 C9.34 26 8.68 26 8 26 C8 26.66 8 27.32 8 28 C5.69 28 3.38 28 1 28 C1.639375 27.731875 2.27875 27.46375 2.9375 27.1875 C5.33131686 26.11332248 5.33131686 26.11332248 6 23 C4.906875 22.896875 3.81375 22.79375 2.6875 22.6875 C-1.88676568 21.8346708 -1.88676568 21.8346708 -4 19 C-4.78223344 14.83575725 -4.64718601 11.10560943 -2.5 7.4375 C-2.005 6.963125 -1.51 6.48875 -1 6 C-0.030625 6.165 0.93875 6.33 1.9375 6.5 C3.95983571 6.85992293 3.95983571 6.85992293 6 7 C6 6.34 6 5.68 6 5 C5.34 5 4.68 5 4 5 C4 4.34 4 3.68 4 3 C2.35 2.67 0.7 2.34 -1 2 C-0.67 1.34 -0.34 0.68 0 0 Z " fill="#8E9192" transform="translate(323,401)"/>
<path d="M0 0 C0.66 0.33 1.32 0.66 2 1 C1.67 2.65 1.34 4.3 1 6 C0.06027344 5.94779297 0.06027344 5.94779297 -0.8984375 5.89453125 C-1.71570313 5.86746094 -2.53296875 5.84039062 -3.375 5.8125 C-4.59316406 5.76029297 -4.59316406 5.76029297 -5.8359375 5.70703125 C-6.55007813 5.80371094 -7.26421875 5.90039062 -8 6 C-10.10827055 9.16240582 -10.33817465 10.50657469 -10.625 14.1875 C-10.69976562 15.08855469 -10.77453125 15.98960937 -10.8515625 16.91796875 C-10.90054688 17.60503906 -10.94953125 18.29210937 -11 19 C-8.11788698 19.96070434 -6.30149956 20.10581883 -3.3125 20.0625 C-2.50425781 20.05347656 -1.69601562 20.04445313 -0.86328125 20.03515625 C-0.24839844 20.02355469 0.36648438 20.01195312 1 20 C1.1875 22.375 1.1875 22.375 1 25 C-2.10986207 27.07324138 -2.89108387 27.27392186 -6.4375 27.25 C-7.19933594 27.25515625 -7.96117187 27.2603125 -8.74609375 27.265625 C-11.2819721 26.96676932 -12.84351696 26.35744933 -15 25 C-18.79121832 20.05035386 -19.78925034 15.90232857 -19.48828125 9.66796875 C-18.82384738 6.03750208 -17.79098245 3.80041361 -15.19140625 1.17578125 C-10.54681707 -1.3162354 -5.08950525 -0.6186139 0 0 Z " fill="#909193" transform="translate(264,286)"/>
<path d="M0 0 C2.31 0 4.62 0 7 0 C7 11.88 7 23.76 7 36 C4.69 36 2.38 36 0 36 C0 24.12 0 12.24 0 0 Z " fill="#898C8E" transform="translate(343,392)"/>
<path d="M0 0 C2.31 0 4.62 0 7 0 C7 11.88 7 23.76 7 36 C4.69 36 2.38 36 0 36 C0 24.12 0 12.24 0 0 Z " fill="#8A8B8C" transform="translate(269,392)"/>
<path d="M0 0 C0 2.31 0 4.62 0 7 C-1.11375 7.103125 -2.2275 7.20625 -3.375 7.3125 C-4.57125 7.539375 -5.7675 7.76625 -7 8 C-9.48044315 11.72066472 -9.44381173 14.86540474 -9.625 19.1875 C-9.66367187 19.93708984 -9.70234375 20.68667969 -9.7421875 21.45898438 C-9.83628216 23.30559199 -9.91922319 25.1527619 -10 27 C-12.31 27 -14.62 27 -17 27 C-17 18.42 -17 9.84 -17 1 C-15.35 1 -13.7 1 -12 1 C-11.67 1.66 -11.34 2.32 -11 3 C-10.38125 2.690625 -9.7625 2.38125 -9.125 2.0625 C-5.74460596 0.37230298 -3.81392817 -0.10036653 0 0 Z " fill="#89898B" transform="translate(375,285)"/>
<path d="M0 0 C0 0.33 0 0.66 0 1 C-1.65 1 -3.3 1 -5 1 C-5 1.99 -5 2.98 -5 4 C-3.35 4 -1.7 4 0 4 C0 6.97 0 9.94 0 13 C0.66 13.33 1.32 13.66 2 14 C1.34 14 0.68 14 0 14 C0 14.66 0 15.32 0 16 C-3.45417106 17.72708553 -7.2165556 17.35006959 -11 17 C-13.5 16 -13.5 16 -15 14 C-16.03732597 10.01666828 -16.30932891 6.92798674 -15 3 C-10.12206417 -0.25195722 -5.77608621 -0.11325659 0 0 Z " fill="#949698" transform="translate(183,412)"/>
<path d="M0 0 C0.93585938 0.01804687 1.87171875 0.03609375 2.8359375 0.0546875 C5.14167015 0.10174327 7.44530945 0.16746287 9.75 0.25 C9.75 1.57 9.75 2.89 9.75 4.25 C8.76 4.25 7.77 4.25 6.75 4.25 C6.811875 5.508125 6.87375 6.76625 6.9375 8.0625 C6.95826011 11.97231986 6.95826011 11.97231986 5.25 14.25 C4.755 14.58 4.26 14.91 3.75 15.25 C3.09 14.59 2.43 13.93 1.75 13.25 C0.76 13.745 0.76 13.745 -0.25 14.25 C-0.58 11.28 -0.91 8.31 -1.25 5.25 C-4.22 4.755 -4.22 4.755 -7.25 4.25 C-7.22679687 4.94867188 -7.20359375 5.64734375 -7.1796875 6.3671875 C-7.16164063 7.27726562 -7.14359375 8.18734375 -7.125 9.125 C-7.10179687 10.02992188 -7.07859375 10.93484375 -7.0546875 11.8671875 C-7.25 14.25 -7.25 14.25 -9.25 16.25 C-13.125 14.5 -13.125 14.5 -14.25 12.25 C-14.82036678 5.17745193 -14.82036678 5.17745193 -12.87109375 2.0078125 C-8.78176206 -0.73466032 -4.79980469 -0.1747828 0 0 Z " fill="#8B8C8E" transform="translate(275.25,343.75)"/>
<path d="M0 0 C2.64 0 5.28 0 8 0 C8 8.58 8 17.16 8 26 C5.36 26 2.72 26 0 26 C0 17.42 0 8.84 0 0 Z " fill="#929595" transform="translate(254,402)"/>
<path d="M0 0 C7.985003 -0.62627475 7.985003 -0.62627475 11.9375 1.8125 C16.19502522 6.32805705 16.42700439 9.2882447 16.32421875 15.265625 C15.8772943 19.03486739 14.51248224 21.20037694 12 24 C8.77208445 26.1519437 7.71599191 26.20086443 4 26 C4.54723683 22.62537285 5.0549 20.91765 7 18 C7.66 18 8.32 18 9 18 C8.91266424 16.39482903 8.80447776 14.79078338 8.6875 13.1875 C8.62949219 12.29417969 8.57148438 11.40085937 8.51171875 10.48046875 C7.92794483 7.65072495 7.2863703 6.71477773 5 5 C2.39388923 4.27802838 2.39388923 4.27802838 0 4 C0 2.68 0 1.36 0 0 Z " fill="#8B8D8F" transform="translate(279,286)"/>
<path d="M0 0 C2.31 0 4.62 0 7 0 C7 8.58 7 17.16 7 26 C4.69 26 2.38 26 0 26 C0 17.42 0 8.84 0 0 Z " fill="#8B8D8E" transform="translate(172,344)"/>
<path d="M0 0 C5.08903125 0.53028561 8.45348633 1.12765418 12.01171875 5.1171875 C14.26316672 9.83450705 14.18810842 14.001887 14.01171875 19.1171875 C11.01171875 20.1171875 11.01171875 20.1171875 8.01171875 20.1171875 C8.01171875 20.7771875 8.01171875 21.4371875 8.01171875 22.1171875 C7.35171875 21.7871875 6.69171875 21.4571875 6.01171875 21.1171875 C6.03492188 20.28574219 6.058125 19.45429688 6.08203125 18.59765625 C6.10007813 17.51097656 6.118125 16.42429687 6.13671875 15.3046875 C6.15992188 14.22574219 6.183125 13.14679688 6.20703125 12.03515625 C6.24195592 8.92315882 6.24195592 8.92315882 4.01171875 6.1171875 C2.04810011 5.53969947 2.04810011 5.53969947 -0.11328125 5.4296875 C-1.39203125 5.3265625 -2.67078125 5.2234375 -3.98828125 5.1171875 C-3.98828125 1.7338701 -3.62292554 0.21353196 0 0 Z " fill="#8C8D8E" transform="translate(182.98828125,284.8828125)"/>
<path d="M0 0 C3.5 -0.375 3.5 -0.375 7 0 C9.20914 3.31371 9.22481553 4.3446021 9.125 8.1875 C9.10695313 9.08855469 9.08890625 9.98960937 9.0703125 10.91796875 C9.03550781 11.94857422 9.03550781 11.94857422 9 13 C8.34 13 7.68 13 7 13 C6.67 13.99 6.34 14.98 6 16 C1.50138614 16.36475248 1.50138614 16.36475248 -0.6484375 14.80078125 C-2.43153793 12.42503183 -2.3694503 10.94389241 -2.3125 8 C-2.30863281 7.13375 -2.30476563 6.2675 -2.30078125 5.375 C-2 3 -2 3 0 0 Z " fill="#F7F7F9" transform="translate(279,291)"/>
<path d="M0 0 C2.3125 1.75 2.3125 1.75 3.3125 3.75 C3.44809318 6.75474497 3.35549016 9.74068847 3.3125 12.75 C-2.2975 12.75 -7.9075 12.75 -13.6875 12.75 C-13.6875 12.42 -13.6875 12.09 -13.6875 11.75 C-10.0575 11.75 -6.4275 11.75 -2.6875 11.75 C-3.0175 11.09 -3.3475 10.43 -3.6875 9.75 C-6.03657875 9.06068656 -6.03657875 9.06068656 -8.75 8.625 C-10.12865234 8.37363281 -10.12865234 8.37363281 -11.53515625 8.1171875 C-12.24542969 7.99601562 -12.95570313 7.87484375 -13.6875 7.75 C-13 5.375 -13 5.375 -11.6875 2.75 C-9.3125 1.5625 -9.3125 1.5625 -6.6875 0.75 C-6.0275 0.316875 -5.3675 -0.11625 -4.6875 -0.5625 C-2.6875 -1.25 -2.6875 -1.25 0 0 Z " fill="#97999A" transform="translate(376.6875,404.25)"/>
<path d="M0 0 C1.99954746 -0.04254356 4.00041636 -0.04080783 6 0 C8.04698414 2.04698414 7.70045693 6.30411241 8 9 C8.66 8.34 9.32 7.68 10 7 C10.33 8.65 10.66 10.3 11 12 C7.17010894 13.80230168 4.21878192 14.19622241 0 14 C0 14.99 0 15.98 0 17 C-1.32 17 -2.64 17 -4 17 C-3.67 18.65 -3.34 20.3 -3 22 C-3.66 22.33 -4.32 22.66 -5 23 C-5.66 22.34 -6.32 21.68 -7 21 C-6.67 20.67 -6.34 20.34 -6 20 C-6.020625 19.05125 -6.04125 18.1025 -6.0625 17.125 C-6 14 -6 14 -4 11 C-3.01 10.67 -2.02 10.34 -1 10 C-0.67 6.7 -0.34 3.4 0 0 Z " fill="#989899" transform="translate(268,348)"/>
<path d="M0 0 C2.93902836 0.58780567 3.71186614 1.13471631 5.5 3.5 C5.79296875 5.98046875 5.79296875 5.98046875 5.6875 8.6875 C5.66042969 9.58855469 5.63335937 10.48960937 5.60546875 11.41796875 C5.57066406 12.10503906 5.53585938 12.79210937 5.5 13.5 C4.84 13.5 4.18 13.5 3.5 13.5 C3.5 14.16 3.5 14.82 3.5 15.5 C0.125 15.625 0.125 15.625 -3.5 15.5 C-5.5 13.5 -5.5 13.5 -5.8125 9.6875 C-5.67952763 5.12488568 -5.02050283 1.00410057 0 0 Z " fill="#EEF1F2" transform="translate(153.5,290.5)"/>
<path d="M0 0 C1.65 0 3.3 0 5 0 C5 1.65 5 3.3 5 5 C5.33 5 5.66 5 6 5 C6 11.6 6 18.2 6 25 C4.02 25 2.04 25 0 25 C0 16.75 0 8.5 0 0 Z " fill="#858889" transform="translate(137,403)"/>
<path d="M0 0 C2.31 0 4.62 0 7 0 C7.82791734 2.9076457 8.16193659 5.54090519 8.1875 8.5625 C8.20167969 9.32691406 8.21585938 10.09132813 8.23046875 10.87890625 C8 13 8 13 6 16 C3 16.375 3 16.375 0 16 C-2.07324138 12.89013793 -2.27392186 12.10891613 -2.25 8.5625 C-2.25515625 7.80066406 -2.2603125 7.03882813 -2.265625 6.25390625 C-1.9747292 3.78556982 -1.22975656 2.142314 0 0 Z " fill="#F1F2F3" transform="translate(181,291)"/>
<path d="M0 0 C2.97 0.495 2.97 0.495 6 1 C6.92867074 3.78601223 7.16342217 5.61066089 7.1875 8.5 C7.20167969 9.2734375 7.21585937 10.046875 7.23046875 10.84375 C7 13 7 13 5 16 C2.5625 16.375 2.5625 16.375 0 16 C-2.10679017 14.39602371 -2.90485633 13.50650014 -3.3984375 10.87890625 C-3.33462033 4.57164307 -3.33462033 4.57164307 -1.5 1.4375 C-0.7575 0.7259375 -0.7575 0.7259375 0 0 Z " fill="#E9F1F1" transform="translate(322,407)"/>
<path d="M0 0 C0.33 0.66 0.66 1.32 1 2 C2.05960937 1.97679687 3.11921875 1.95359375 4.2109375 1.9296875 C5.5989513 1.91093056 6.9869727 1.89273028 8.375 1.875 C9.42300781 1.84986328 9.42300781 1.84986328 10.4921875 1.82421875 C12.32897486 1.80655733 14.16601963 1.89696739 16 2 C16.66 2.66 17.32 3.32 18 4 C17.67 4.99 17.34 5.98 17 7 C9.08 7.495 9.08 7.495 1 8 C1 10.31 1 12.62 1 15 C-0.875 15.625 -0.875 15.625 -3 16 C-5 14 -5 14 -5.125 10.875 C-5.08375 9.92625 -5.0425 8.9775 -5 8 C-3.35 7.67 -1.7 7.34 0 7 C-0.2784375 5.824375 -0.2784375 5.824375 -0.5625 4.625 C-1 2 -1 2 0 0 Z " fill="#8A8A8C" transform="translate(264,363)"/>
<path d="M0 0 C11.88975473 -0.56221257 11.88975473 -0.56221257 16 3 C17.60725635 6.21451269 17.05748185 9.43612536 17 13 C13.85069107 14.04976964 11.61185544 14.10131595 8.3125 14.0625 C7.31863281 14.05347656 6.32476562 14.04445313 5.30078125 14.03515625 C4.16189453 14.01775391 4.16189453 14.01775391 3 14 C3 13.67 3 13.34 3 13 C5.31 13 7.62 13 10 13 C10 12.34 10 11.68 10 11 C7.36 11 4.72 11 2 11 C2 10.67 2 10.34 2 10 C4.97 10 7.94 10 11 10 C9.35869755 6.53502816 8.61572682 5.22618536 4.9375 3.875 C3.968125 3.58625 2.99875 3.2975 2 3 C1.34 2.01 0.68 1.02 0 0 Z " fill="#8C8E90" transform="translate(334,286)"/>
<path d="M0 0 C0.78375 0.04125 1.5675 0.0825 2.375 0.125 C2.705 0.785 3.035 1.445 3.375 2.125 C5.03572849 2.80632451 6.702767 3.47242127 8.375 4.125 C10.375 6.125 10.375 6.125 10.375 9.125 C9.47136719 9.17398437 8.56773437 9.22296875 7.63671875 9.2734375 C5.86748047 9.38558594 5.86748047 9.38558594 4.0625 9.5 C2.30486328 9.60441406 2.30486328 9.60441406 0.51171875 9.7109375 C-2.78199887 9.91113747 -2.78199887 9.91113747 -5.625 12.125 C-6.285 13.115 -6.945 14.105 -7.625 15.125 C-7.94049831 9.86669479 -7.35845236 6.64570968 -4.625 2.125 C-2.625 0.125 -2.625 0.125 0 0 Z " fill="#88898C" transform="translate(334.625,286.875)"/>
<path d="M0 0 C2.97 0 5.94 0 9 0 C9 5.61 9 11.22 9 17 C10.65 17.33 12.3 17.66 14 18 C14.33 22.62 14.66 27.24 15 32 C14.01 32.495 14.01 32.495 13 33 C12.67 29.04 12.34 25.08 12 21 C9.14206684 23.85793316 9.59200059 26.14665584 9.375 30.125 C9.30023438 31.40632813 9.22546875 32.68765625 9.1484375 34.0078125 C9.09945313 34.99523437 9.05046875 35.98265625 9 37 C8.67 37 8.34 37 8 37 C8 25.12 8 13.24 8 1 C5.69 1 3.38 1 1 1 C1 12.88 1 24.76 1 37 C0.67 37 0.34 37 0 37 C0 24.79 0 12.58 0 0 Z " fill="#DADEE0" transform="translate(342,391)"/>
<path d="M0 0 C0.66 0.33 1.32 0.66 2 1 C2 7.93 2 14.86 2 22 C0.02 22 -1.96 22 -4 22 C-4.10787818 19.22813012 -4.18723327 16.46044463 -4.25 13.6875 C-4.28351563 12.90181641 -4.31703125 12.11613281 -4.3515625 11.30664062 C-4.38854681 9.13381215 -4.3852005 7.13968621 -4 5 C-1.984375 3.08203125 -1.984375 3.08203125 0 2 C0 1.34 0 0.68 0 0 Z " fill="#878887" transform="translate(224,348)"/>
<path d="M0 0 C0.52078125 0.16371094 1.0415625 0.32742188 1.578125 0.49609375 C4.6756875 1.14058659 7.58841094 1.09411589 10.75 1.0625 C11.92046875 1.05347656 13.0909375 1.04445313 14.296875 1.03515625 C15.18890625 1.02355469 16.0809375 1.01195312 17 1 C17 2.65 17 4.3 17 6 C12.248681 8.78371396 7.36349803 8.81721937 2 8 C-0.3597567 6.55288424 -1.34613065 5.2811991 -3 3 C-2.01 2.34 -1.02 1.68 0 1 C0 0.67 0 0.34 0 0 Z " fill="#969999" transform="translate(294,363)"/>
<path d="M0 0 C1.6484375 1.046875 1.6484375 1.046875 4.0859375 3.171875 C4.0859375 3.831875 4.0859375 4.491875 4.0859375 5.171875 C1.0162074 6.99148877 -0.77805199 7.35124508 -4.2890625 6.796875 C-7.86872148 6.29394771 -11.29077213 6.07897012 -14.9140625 6.171875 C-15.2440625 4.521875 -15.5740625 2.871875 -15.9140625 1.171875 C-11.03710166 -1.34526608 -5.14785528 -2.22723535 0 0 Z " fill="#939596" transform="translate(299.9140625,401.828125)"/>
<path d="M0 0 C0.66 0.33 1.32 0.66 2 1 C2 3.97 2 6.94 2 10 C3.65 10 5.3 10 7 10 C7.66 13.63 8.32 17.26 9 21 C8.34 21 7.68 21 7 21 C6.67 22.65 6.34 24.3 6 26 C4.35 25.67 2.7 25.34 1 25 C1 24.34 1 23.68 1 23 C-1.31 23 -3.62 23 -6 23 C-6 22.67 -6 22.34 -6 22 C-3.69 22 -1.38 22 1 22 C0.67 14.74 0.34 7.48 0 0 Z " fill="#E6EDEC" transform="translate(160,406)"/>
<path d="M0 0 C0.33 0.99 0.66 1.98 1 3 C-0.98 3.99 -0.98 3.99 -3 5 C-3 5.66 -3 6.32 -3 7 C-0.525 7.99 -0.525 7.99 2 9 C2.62485037 18.09504429 2.62485037 18.09504429 0.1875 21.625 C-2 23 -2 23 -5 23 C-4.835 22.401875 -4.67 21.80375 -4.5 21.1875 C-3.8885876 18.88655664 -3.8885876 18.88655664 -4 16 C-4.66 16.99 -5.32 17.98 -6 19 C-6.66 18.34 -7.32 17.68 -8 17 C-7.39816251 14.97954558 -6.72693904 12.97888961 -6 11 C-5.34 10.67 -4.68 10.34 -4 10 C-4 8.02 -4 6.04 -4 4 C-3.34 4 -2.68 4 -2 4 C-2.33 3.01 -2.66 2.02 -3 1 C-2.01 0.67 -1.02 0.34 0 0 Z " fill="#929495" transform="translate(134,288)"/>
<path d="M0 0 C2.79192205 -0.05380578 5.5828141 -0.09357669 8.375 -0.125 C9.1690625 -0.14175781 9.963125 -0.15851563 10.78125 -0.17578125 C12.85492015 -0.19335473 14.92883241 -0.10335168 17 0 C17.66 0.66 18.32 1.32 19 2 C18.625 4.125 18.625 4.125 18 6 C17.34 6 16.68 6 16 6 C15.67 7.32 15.34 8.64 15 10 C15 8.35 15 6.7 15 5 C14.01 5.495 14.01 5.495 13 6 C11.35857459 6.14640501 9.7101859 6.22096589 8.0625 6.25 C6.74958984 6.28867187 6.74958984 6.28867187 5.41015625 6.328125 C3 6 3 6 1.18359375 4.671875 C0 3 0 3 0 0 Z " fill="#EBEFF1" transform="translate(363,417)"/>
<path d="M0 0 C0.66 0.33 1.32 0.66 2 1 C1.67 2.98 1.34 4.96 1 7 C3.31 7.33 5.62 7.66 8 8 C8.33 9.32 8.66 10.64 9 12 C5.86128812 13.56935594 3.46144178 13.35201103 0 13 C-2.9375 10.875 -2.9375 10.875 -5 8 C-5.3125 4.6875 -5.3125 4.6875 -5 2 C-2.625 0.9375 -2.625 0.9375 0 0 Z " fill="#86888A" transform="translate(228,416)"/>
<path d="M0 0 C0.33 1.65 0.66 3.3 1 5 C0.08476562 5.12117188 -0.83046875 5.24234375 -1.7734375 5.3671875 C-3.55621094 5.61855469 -3.55621094 5.61855469 -5.375 5.875 C-7.15003906 6.11863281 -7.15003906 6.11863281 -8.9609375 6.3671875 C-12.09566659 6.7302585 -12.09566659 6.7302585 -14 9 C-14.24287489 11.44012949 -14.24287489 11.44012949 -14.125 14.125 C-14.10695312 15.03507812 -14.08890625 15.94515625 -14.0703125 16.8828125 C-14.04710937 17.58148438 -14.02390625 18.28015625 -14 19 C-14.66 18.67 -15.32 18.34 -16 18 C-16 13.05 -16 8.1 -16 3 C-10.4477112 0.1647887 -6.19887485 -0.37952295 0 0 Z " fill="#DFE1E2" transform="translate(247,349)"/>
<path d="M0 0 C0.99 0 1.98 0 3 0 C3.66 1.65 4.32 3.3 5 5 C4.34 5 3.68 5 3 5 C2.67 5.66 2.34 6.32 2 7 C-2.29 7 -6.58 7 -11 7 C-10 2 -10 2 -7.75 0.125 C-4.55988369 -1.18004758 -3.24996018 -0.94077795 0 0 Z " fill="#919394" transform="translate(307,347)"/>
<path d="M0 0 C1.13308594 -0.03738281 2.26617187 -0.07476562 3.43359375 -0.11328125 C7.15121413 0.39261216 8.25563903 1.43884273 10.5625 4.3125 C9.94375 4.43625 9.325 4.56 8.6875 4.6875 C6.37129168 5.18447356 6.37129168 5.18447356 4.5625 7.3125 C4.2325 6.9825 3.9025 6.6525 3.5625 6.3125 C1.54285801 6.24005947 -0.47917124 6.22872812 -2.5 6.25 C-3.60472656 6.25902344 -4.70945313 6.26804687 -5.84765625 6.27734375 C-6.70230469 6.28894531 -7.55695313 6.30054688 -8.4375 6.3125 C-8.7675 4.6625 -9.0975 3.0125 -9.4375 1.3125 C-6.12966735 0.20988912 -3.48190731 0.07509221 0 0 Z " fill="#8B8C8D" transform="translate(243.4375,343.6875)"/>
<path d="M0 0 C0.90105469 0.00902344 1.80210937 0.01804687 2.73046875 0.02734375 C3.41753906 0.03894531 4.10460937 0.05054688 4.8125 0.0625 C4.8125 0.3925 4.8125 0.7225 4.8125 1.0625 C2.8325 1.3925 0.8525 1.7225 -1.1875 2.0625 C0.7925 2.7225 2.7725 3.3825 4.8125 4.0625 C5 6.9375 5 6.9375 4.8125 10.0625 C1.59036243 12.21059171 0.53474599 12.35636153 -3.1875 12.0625 C-4.1875 11.0625 -4.1875 11.0625 -4.28515625 9.21484375 C-4.25260417 7.1640625 -4.22005208 5.11328125 -4.1875 3.0625 C-5.8375 3.0625 -7.4875 3.0625 -9.1875 3.0625 C-7.31499103 -0.68251794 -3.72136574 -0.04832943 0 0 Z " fill="#ADB0B1" transform="translate(293.1875,411.9375)"/>
<path d="M0 0 C2.5625 1.5 2.5625 1.5 4 3 C3.67 4.65 3.34 6.3 3 8 C1.68 8.33 0.36 8.66 -1 9 C-1.33 14.61 -1.66 20.22 -2 26 C-0.02 26 1.96 26 4 26 C4 26.33 4 26.66 4 27 C1.69 27 -0.62 27 -3 27 C-3.02505615 26.40985107 -3.0501123 25.81970215 -3.07592773 25.21166992 C-3.19200052 22.53673186 -3.31467572 19.8621362 -3.4375 17.1875 C-3.47681641 16.25873047 -3.51613281 15.32996094 -3.55664062 14.37304688 C-3.61948242 13.0340332 -3.61948242 13.0340332 -3.68359375 11.66796875 C-3.72025146 10.84578857 -3.75690918 10.0236084 -3.79467773 9.17651367 C-3.93427772 6.82094822 -3.93427772 6.82094822 -5 4 C-5 3.01 -5 2.02 -5 1 C-5.66 1 -6.32 1 -7 1 C-7.33 1.66 -7.66 2.32 -8 3 C-8.99 2.34 -9.98 1.68 -11 1 C-7.56928684 -0.71535658 -3.75941181 -0.4006478 0 0 Z " fill="#97999A" transform="translate(222,344)"/>
<path d="M0 0 C0.99 0 1.98 0 3 0 C3 0.66 3 1.32 3 2 C3.99 2 4.98 2 6 2 C6 4.31 6 6.62 6 9 C7.32 9.66 8.64 10.32 10 11 C6.77856724 13.14762184 5.7404533 13.561068 2 13 C-0.19527895 11.18321742 -0.91220275 9.82210152 -1.21484375 6.98828125 C-1.24711315 4.99116393 -1.13069492 2.99309753 -1 1 C-0.67 0.67 -0.34 0.34 0 0 Z " fill="#88898C" transform="translate(233,357)"/>
<path d="M0 0 C7.75 -0.125 7.75 -0.125 10 1 C10.125 3.875 10.125 3.875 10 7 C8 9 8 9 6.0546875 9.1953125 C4.03645833 9.13020833 2.01822917 9.06510417 0 9 C0 6.03 0 3.06 0 0 Z " fill="#EFF0F1" transform="translate(118,297)"/>
<path d="M0 0 C0 2.31 0 4.62 0 7 C-1.03125 7.12375 -2.0625 7.2475 -3.125 7.375 C-6.62116846 7.93889814 -9.68397627 8.78682059 -13 10 C-13.33 8.68 -13.66 7.36 -14 6 C-13.34 6 -12.68 6 -12 6 C-11.67 5.01 -11.34 4.02 -11 3 C-9.0625 1.875 -9.0625 1.875 -7 1 C-4.53721199 -0.231394 -2.7204945 -0.07159196 0 0 Z " fill="#8D9093" transform="translate(375,285)"/>
<path d="M0 0 C1.15628906 -0.01417969 2.31257812 -0.02835937 3.50390625 -0.04296875 C6.4375 0.1875 6.4375 0.1875 8.4375 2.1875 C7.7775 2.1875 7.1175 2.1875 6.4375 2.1875 C6.4375 2.8475 6.4375 3.5075 6.4375 4.1875 C4.8551994 4.52570166 3.27160625 4.85785939 1.6875 5.1875 C0.36492187 5.4659375 0.36492187 5.4659375 -0.984375 5.75 C-3.5625 6.1875 -3.5625 6.1875 -7.5625 6.1875 C-7.5625 5.5275 -7.5625 4.8675 -7.5625 4.1875 C-8.2225 4.1875 -8.8825 4.1875 -9.5625 4.1875 C-9.5625 3.1975 -9.5625 2.2075 -9.5625 1.1875 C-6.1971364 0.06571213 -3.5421245 0.01978841 0 0 Z " fill="#8F8F91" transform="translate(235.5625,401.8125)"/>
<path d="M0 0 C2.35119399 3.52679099 2.21443452 5.02879485 2.125 9.1875 C2.10695312 10.27417969 2.08890625 11.36085938 2.0703125 12.48046875 C2.03550781 13.72763672 2.03550781 13.72763672 2 15 C0.02 15 -1.96 15 -4 15 C-4.05410687 13.22950311 -4.09284119 11.45853151 -4.125 9.6875 C-4.14820313 8.70136719 -4.17140625 7.71523438 -4.1953125 6.69921875 C-4 4 -4 4 -2 1 C-2 1.66 -2 2.32 -2 3 C-1.34 3 -0.68 3 0 3 C0 2.01 0 1.02 0 0 Z " fill="#868A88" transform="translate(158,413)"/>
<path d="M0 0 C4.29 0 8.58 0 13 0 C12 5 12 5 11 6 C9.33570949 6.09823937 7.66718069 6.12973631 6 6.125 C4.63875 6.12886719 4.63875 6.12886719 3.25 6.1328125 C1 6 1 6 0 5 C0 3.35 0 1.7 0 0 Z " fill="#E7E9EB" transform="translate(265,371)"/>
<path d="M0 0 C0.66 0 1.32 0 2 0 C3.33500455 5.34001821 2.512545 8.83955235 1 14 C-1.31 14 -3.62 14 -6 14 C-6.33 12.02 -6.66 10.04 -7 8 C-6.01 8 -5.02 8 -4 8 C-4 8.66 -4 9.32 -4 10 C-3.34 10 -2.68 10 -2 10 C-1.855625 8.906875 -1.71125 7.81375 -1.5625 6.6875 C-1 3 -1 3 0 0 Z " fill="#8C8C8E" transform="translate(210,413)"/>
<path d="M0 0 C-1.38188453 3.21043882 -2.92421903 5.04936365 -5.625 7.25 C-6.57246094 8.03117187 -6.57246094 8.03117187 -7.5390625 8.828125 C-8.02117187 9.21484375 -8.50328125 9.6015625 -9 10 C-9.66 9.67 -10.32 9.34 -11 9 C-11 8.34 -11 7.68 -11 7 C-11.66 6.67 -12.32 6.34 -13 6 C-9.04608494 0.06912741 -7.07897132 -0.71989539 0 0 Z " fill="#939394" transform="translate(228,286)"/>
<path d="M0 0 C0.99 0.33 1.98 0.66 3 1 C3 2.65 3 4.3 3 6 C-0.71279469 7.23759823 -4.31306346 7.35608897 -8.1875 7.5625 C-8.93708984 7.60568359 -9.68667969 7.64886719 -10.45898438 7.69335938 C-12.30578375 7.79922685 -14.15286834 7.9000976 -16 8 C-15.67 6.68 -15.34 5.36 -15 4 C-10.05 3.67 -5.1 3.34 0 3 C0 2.01 0 1.02 0 0 Z " fill="#868887" transform="translate(309,351)"/>
<path d="M0 0 C7.75 -0.125 7.75 -0.125 10 1 C9.125 5.875 9.125 5.875 8 7 C5.32941149 7.14115161 2.67567762 7.04247107 0 7 C0 4.69 0 2.38 0 0 Z " fill="#F1F3F5" transform="translate(118,284)"/>
<path d="M0 0 C0.33 1.65 0.66 3.3 1 5 C-3.62 5.33 -8.24 5.66 -13 6 C-11 1 -11 1 -9.3125 0.1875 C-6.20056862 -0.06481876 -3.12021773 -0.06000419 0 0 Z " fill="#ECEDEF" transform="translate(182,407)"/>
<path d="M0 0 C0.99 0.99 1.98 1.98 3 3 C3.66 2.67 4.32 2.34 5 2 C4.63752904 4.62791446 4.23545243 5.77739043 2.28125 7.625 C-0.46870056 9.28250445 -2.06978456 9.31303482 -5.25 9.1875 C-6.14203125 9.16042969 -7.0340625 9.13335937 -7.953125 9.10546875 C-8.62859375 9.07066406 -9.3040625 9.03585937 -10 9 C-10 8.01 -10 7.02 -10 6 C-7.03 5.34 -4.06 4.68 -1 4 C-0.67 2.68 -0.34 1.36 0 0 Z " fill="#858888" transform="translate(159,303)"/>
<path d="M0 0 C1.98 0 3.96 0 6 0 C6.33 0.66 6.66 1.32 7 2 C7.99 1.67 8.98 1.34 10 1 C10.99 1.66 11.98 2.32 13 3 C11.625 4.5 11.625 4.5 10 6 C9.34 6 8.68 6 8 6 C7.67 12.6 7.34 19.2 7 26 C6.67 26 6.34 26 6 26 C5.67 20.72 5.34 15.44 5 10 C4.67 10 4.34 10 4 10 C4.33 7.03 4.66 4.06 5 1 C3.35 1 1.7 1 0 1 C0 0.67 0 0.34 0 0 Z " fill="#929696" transform="translate(137,402)"/>
<path d="M0 0 C2.31 0 4.62 0 7 0 C8.08056059 3.97159686 7.85815614 6.42553157 6.5625 10.3125 C6.27503906 11.19550781 5.98757812 12.07851563 5.69140625 12.98828125 C5.46324219 13.65214844 5.23507813 14.31601562 5 15 C4.67 15 4.34 15 4 15 C3.3299166 12.87607494 2.66403203 10.75082476 2 8.625 C1.62875 7.44164062 1.2575 6.25828125 0.875 5.0390625 C0 2 0 2 0 0 Z " fill="#E6ECEC" transform="translate(203,406)"/>
<path d="M0 0 C1.99954746 -0.04254356 4.00041636 -0.04080783 6 0 C7 1 7 1 7.1875 3.9375 C7 7 7 7 5 9 C2.375 8.625 2.375 8.625 0 8 C0 5.36 0 2.72 0 0 Z " fill="#EDEEEF" transform="translate(268,348)"/>
<path d="M0 0 C2.31 0 4.62 0 7 0 C7.33 6.6 7.66 13.2 8 20 C8.33 19.34 8.66 18.68 9 18 C9.66 18 10.32 18 11 18 C10.67 19.32 10.34 20.64 10 22 C10.66 22 11.32 22 12 22 C12 22.66 12 23.32 12 24 C11.34 24.33 10.68 24.66 10 25 C10.33 25.66 10.66 26.32 11 27 C9.68 27.33 8.36 27.66 7 28 C6.20293232 24.50007304 5.88136973 21.2857769 5.90234375 17.69921875 C5.90556641 16.72275391 5.90878906 15.74628906 5.91210938 14.74023438 C5.92048828 13.73283203 5.92886719 12.72542969 5.9375 11.6875 C5.94201172 10.66076172 5.94652344 9.63402344 5.95117188 8.57617188 C5.96291816 6.05072118 5.97934435 3.52539095 6 1 C4.02 1 2.04 1 0 1 C0 0.67 0 0.34 0 0 Z " fill="#A6A7A7" transform="translate(204,275)"/>
<path d="M0 0 C2.64 0 5.28 0 8 0 C8.33 1.65 8.66 3.3 9 5 C7.02 5.99 7.02 5.99 5 7 C5 8.98 5 10.96 5 13 C3.09610151 10.14415227 2.30537823 8.0688238 1.375 4.8125 C0.98441406 3.46091797 0.98441406 3.46091797 0.5859375 2.08203125 C0.39257812 1.39496094 0.19921875 0.70789063 0 0 Z " fill="#929496" transform="translate(298,286)"/>
<path d="M0 0 C1.670625 0.061875 1.670625 0.061875 3.375 0.125 C3.045 2.435 2.715 4.745 2.375 7.125 C0.065 7.125 -2.245 7.125 -4.625 7.125 C-5.25 4.75 -5.25 4.75 -5.625 2.125 C-3.625 0.125 -3.625 0.125 0 0 Z " fill="#DBDEDF" transform="translate(236.625,415.875)"/>
<path d="M0 0 C0.33 0.66 0.66 1.32 1 2 C1.69867188 1.90460938 2.39734375 1.80921875 3.1171875 1.7109375 C4.02726563 1.60007812 4.93734375 1.48921875 5.875 1.375 C6.77992188 1.25898438 7.68484375 1.14296875 8.6171875 1.0234375 C9.40351563 1.01570313 10.18984375 1.00796875 11 1 C13 3 13 3 13 6 C7.06 6.495 7.06 6.495 1 7 C0.67 4.69 0.34 2.38 0 0 Z " fill="#E4E8E9" transform="translate(227,406)"/>
<path d="M0 0 C1.32 0.33 2.64 0.66 4 1 C4 1.66 4 2.32 4 3 C0.06237373 6.41260943 -3.73570832 6.35321315 -8.6953125 6.3984375 C-11.41235079 5.92871224 -12.29284768 5.10883522 -14 3 C-10.98509443 1.99503148 -8.95818308 1.89664697 -5.8125 1.9375 C-4.91144531 1.94652344 -4.01039063 1.95554687 -3.08203125 1.96484375 C-2.39496094 1.97644531 -1.70789063 1.98804688 -1 2 C-0.67 1.34 -0.34 0.68 0 0 Z " fill="#8A8B8D" transform="translate(278,376)"/>
<path d="M0 0 C-0.33 2.31 -0.66 4.62 -1 7 C-3.31 7 -5.62 7 -8 7 C-8.33 5.35 -8.66 3.7 -9 2 C-5.5647952 -0.29013653 -4.014669 -0.17842973 0 0 Z " fill="#E3E5E4" transform="translate(248,358)"/>
<path d="M0 0 C1.91015625 0.1328125 1.91015625 0.1328125 3.91015625 1.1328125 C3.66015625 3.5078125 3.66015625 3.5078125 2.91015625 6.1328125 C0.84765625 7.4453125 0.84765625 7.4453125 -1.08984375 8.1328125 C-1.41984375 7.4728125 -1.74984375 6.8128125 -2.08984375 6.1328125 C-3.07984375 5.8028125 -4.06984375 5.4728125 -5.08984375 5.1328125 C-5.08984375 4.4728125 -5.08984375 3.8128125 -5.08984375 3.1328125 C-5.74984375 2.4728125 -6.40984375 1.8128125 -7.08984375 1.1328125 C-5.19099279 -0.76603846 -2.51736472 0.00913744 0 0 Z " fill="#868A8B" transform="translate(154.08984375,401.8671875)"/>
<path d="M0 0 C0.33 -0.66 0.66 -1.32 1 -2 C1 -1.01 1 -0.02 1 1 C0.030625 1.12375 -0.93875 1.2475 -1.9375 1.375 C-2.948125 1.58125 -3.95875 1.7875 -5 2 C-5.33 2.66 -5.66 3.32 -6 4 C-6.66 3.67 -7.32 3.34 -8 3 C-8 3.99 -8 4.98 -8 6 C-9.875 5.75 -9.875 5.75 -12 5 C-13.25 2.9375 -13.25 2.9375 -14 1 C-9.19953017 -3.0262005 -5.52809507 -1.67408544 0 0 Z " fill="#979998" transform="translate(157,306)"/>
<path d="M0 0 C0.66 0 1.32 0 2 0 C2 0.66 2 1.32 2 2 C2.66 2 3.32 2 4 2 C5.23921302 4.97411124 6.30058404 7.85262818 7 11 C4.69 10.67 2.38 10.34 0 10 C0 9.34 0 8.68 0 8 C-0.66 7.67 -1.32 7.34 -2 7 C-1.01 6.67 -0.02 6.34 1 6 C0.01 5.01 -0.98 4.02 -2 3 C-1.34 2.01 -0.68 1.02 0 0 Z " fill="#898989" transform="translate(215,293)"/>
<path d="M0 0 C1.19109375 -0.00386719 1.19109375 -0.00386719 2.40625 -0.0078125 C4.5 0.125 4.5 0.125 6.5 1.125 C6.17 2.445 5.84 3.765 5.5 5.125 C1.87 5.125 -1.76 5.125 -5.5 5.125 C-5.83 3.805 -6.16 2.485 -6.5 1.125 C-4.13386544 -0.05806728 -2.63219264 -0.00854608 0 0 Z M1.5 1.125 C2.16 1.785 2.82 2.445 3.5 3.125 C3.83 2.465 4.16 1.805 4.5 1.125 C3.51 1.125 2.52 1.125 1.5 1.125 Z " fill="#929597" transform="translate(301.5,365.875)"/>
<path d="M0 0 C3.3 0.99 6.6 1.98 10 3 C8.02 3.99 8.02 3.99 6 5 C4.73195434 7.0335948 4.73195434 7.0335948 4 9 C0.73045798 8.43628586 -0.82575883 7.50037734 -3 5 C-1.125 1.125 -1.125 1.125 0 0 Z " fill="#909294" transform="translate(145,287)"/>
<path d="M0 0 C1.5078125 1.21484375 1.5078125 1.21484375 3 3 C3.1796875 5.19140625 3.1796875 5.19140625 2.875 7.5625 C2.78992188 8.34753906 2.70484375 9.13257813 2.6171875 9.94140625 C2 12 2 12 -1 14 C-1 11 -1 11 0 9 C-0.66 9 -1.32 9 -2 9 C-1.67 8.01 -1.34 7.02 -1 6 C-1.33 5.67 -1.66 5.34 -2 5 C-2 4.34 -2 3.68 -2 3 C-1.34 3 -0.68 3 0 3 C0 2.01 0 1.02 0 0 Z M-6 5 C-4.68 6.32 -3.36 7.64 -2 9 C-3.75 12.875 -3.75 12.875 -6 14 C-6 11.03 -6 8.06 -6 5 Z " fill="#E8EBEC" transform="translate(261,356)"/>
<path d="M0 0 C2.625 0.25 2.625 0.25 4.4375 1.5625 C5.625 3.25 5.625 3.25 5.625 6.25 C2.325 6.25 -0.975 6.25 -4.375 6.25 C-3.31585282 0.34903714 -3.31585282 0.34903714 0 0 Z " fill="#E6E7E9" transform="translate(339.375,289.75)"/>
<path d="M0 0 C0.66 0.33 1.32 0.66 2 1 C2 1.66 2 2.32 2 3 C4.31 3.33 6.62 3.66 9 4 C9 4.33 9 4.66 9 5 C7.02 5 5.04 5 3 5 C2.34 8.63 1.68 12.26 1 16 C0.67 16 0.34 16 0 16 C-0.103125 14.7625 -0.20625 13.525 -0.3125 12.25 C-0.73801682 8.7207134 -1.48112592 6.62839034 -4 4 C-2.68 2.68 -1.36 1.36 0 0 Z " fill="#969799" transform="translate(178,286)"/>
<path d="M0 0 C3.0625 0.125 3.0625 0.125 5.0625 1.125 C4.7325 2.775 4.4025 4.425 4.0625 6.125 C0.7625 5.795 -2.5375 5.465 -5.9375 5.125 C-3.44836957 0.14673913 -3.44836957 0.14673913 0 0 Z " fill="#8C8D8F" transform="translate(260.9375,285.875)"/>
<path d="M0 0 C1.4540625 0.0309375 1.4540625 0.0309375 2.9375 0.0625 C3.5625 2.4375 3.5625 2.4375 3.9375 5.0625 C3.2775 5.7225 2.6175 6.3825 1.9375 7.0625 C-1.1875 6.6875 -1.1875 6.6875 -4.0625 6.0625 C-4.105221 4.39638095 -4.10313832 2.72867115 -4.0625 1.0625 C-3.0625 0.0625 -3.0625 0.0625 0 0 Z " fill="#8D9193" transform="translate(258.0625,391.9375)"/>
<path d="M0 0 C1.21236328 0.02707031 1.21236328 0.02707031 2.44921875 0.0546875 C3.37154297 0.08949219 3.37154297 0.08949219 4.3125 0.125 C4.3125 1.445 4.3125 2.765 4.3125 4.125 C2.3325 4.125 0.3525 4.125 -1.6875 4.125 C-1.6875 6.765 -1.6875 9.405 -1.6875 12.125 C-2.0175 12.125 -2.3475 12.125 -2.6875 12.125 C-3.0175 9.155 -3.3475 6.185 -3.6875 3.125 C-5.0075 3.455 -6.3275 3.785 -7.6875 4.125 C-7.6875 3.465 -7.6875 2.805 -7.6875 2.125 C-4.48369983 -0.01086678 -3.66810033 -0.10632175 0 0 Z " fill="#929495" transform="translate(269.6875,343.875)"/>
<path d="M0 0 C0.66 0.99 1.32 1.98 2 3 C2.66 2.34 3.32 1.68 4 1 C5.5029278 3.53124683 6.2006987 5.20745988 5.46484375 8.11328125 C4.7028501 10.10864138 3.89496636 12.06090622 3 14 C2.67 14 2.34 14 2 14 C1.67 12.02 1.34 10.04 1 8 C-0.32 9.32 -1.64 10.64 -3 12 C-2.40075776 7.80530429 -1.42500059 3.99000166 0 0 Z " fill="#8E8F91" transform="translate(316,290)"/>
<path d="M0 0 C-0.875 5.875 -0.875 5.875 -2 7 C-3.66617115 7.04063832 -5.33388095 7.042721 -7 7 C-7.33 5.35 -7.66 3.7 -8 2 C-4.77208445 -0.1519437 -3.71599191 -0.20086443 0 0 Z " fill="#E9ECED" transform="translate(183,416)"/>
<path d="M0 0 C0.91007812 0.10183594 1.82015625 0.20367187 2.7578125 0.30859375 C3.45648438 0.39238281 4.15515625 0.47617187 4.875 0.5625 C5.205 1.5525 5.535 2.5425 5.875 3.5625 C4.10432584 3.73084933 2.33345388 3.89711909 0.5625 4.0625 C-0.42363281 4.1553125 -1.40976562 4.248125 -2.42578125 4.34375 C-5.125 4.5625 -5.125 4.5625 -8.125 4.5625 C-7.75 2.625 -7.75 2.625 -7.125 0.5625 C-4.50184968 -0.74907516 -2.89466564 -0.33399988 0 0 Z " fill="#88888A" transform="translate(368.125,412.4375)"/>
<path d="M0 0 C4.0589816 -0.3183515 6.3474968 -0.39717586 9.875 1.75 C11.96374181 3.96160897 12.68151851 5.02750614 13 8 C10.69 7.67 8.38 7.34 6 7 C6 6.34 6 5.68 6 5 C5.34 5 4.68 5 4 5 C4 4.34 4 3.68 4 3 C2.35 2.67 0.7 2.34 -1 2 C-0.67 1.34 -0.34 0.68 0 0 Z " fill="#979C9D" transform="translate(323,401)"/>
<path d="M0 0 C2.97 0.495 2.97 0.495 6 1 C6 1.66 6 2.32 6 3 C7.98 2.67 9.96 2.34 12 2 C11.34 3.32 10.68 4.64 10 6 C9.34 6 8.68 6 8 6 C7.01 6.33 6.02 6.66 5 7 C3.60560336 7.06665376 2.20830125 7.08538199 0.8125 7.0625 C-1.0746875 7.0315625 -1.0746875 7.0315625 -3 7 C-1 6 1 5 3 4 C2.01 3.34 1.02 2.68 0 2 C0 1.34 0 0.68 0 0 Z " fill="#A1A2A4" transform="translate(239,364)"/>
<path d="M0 0 C2.875 -0.125 2.875 -0.125 6 0 C8 2 8 2 8 5 C4.7 5 1.4 5 -2 5 C-1.34 3.35 -0.68 1.7 0 0 Z " fill="#E9EBEC" transform="translate(365,407)"/>
<path d="M0 0 C2.31 0 4.62 0 7 0 C7.33 1.65 7.66 3.3 8 5 C5.03 5 2.06 5 -1 5 C-0.67 3.35 -0.34 1.7 0 0 Z " fill="#EDEEEF" transform="translate(297,349)"/>
<path d="M0 0 C1.98 0 3.96 0 6 0 C6 1.98 6 3.96 6 6 C3.69 6 1.38 6 -1 6 C-0.67 4.02 -0.34 2.04 0 0 Z " fill="#8C8F91" transform="translate(173,334)"/>
<path d="M0 0 C0.433125 0.474375 0.86625 0.94875 1.3125 1.4375 C3.02309613 3.23686957 3.02309613 3.23686957 6 4 C6 4.99 6 5.98 6 7 C4.576875 7.4640625 4.576875 7.4640625 3.125 7.9375 C0.13919592 8.87394742 0.13919592 8.87394742 -2 10 C-1.85950482 8.52031676 -1.71245174 7.04125484 -1.5625 5.5625 C-1.48128906 4.73878906 -1.40007812 3.91507812 -1.31640625 3.06640625 C-1 1 -1 1 0 0 Z " fill="#F7F8FA" transform="translate(297,295)"/>
<path d="M0 0 C3.625 -0.1875 3.625 -0.1875 7 0 C7.33 0.99 7.66 1.98 8 3 C7.34 3 6.68 3 6 3 C5.67 3.66 5.34 4.32 5 5 C5 3.68 5 2.36 5 1 C4.01 1.495 4.01 1.495 3 2 C3 2.99 3 3.98 3 5 C2.01 5.33 1.02 5.66 0 6 C-0.33 8.31 -0.66 10.62 -1 13 C-1.33 13 -1.66 13 -2 13 C-2.05416188 11.39620659 -2.09286638 9.79188594 -2.125 8.1875 C-2.14820313 7.29417969 -2.17140625 6.40085937 -2.1953125 5.48046875 C-2 3 -2 3 0 0 Z " fill="#E1E2E4" transform="translate(279,291)"/>
<path d="M0 0 C2.64 0 5.28 0 8 0 C7.01 0.33 6.02 0.66 5 1 C5 1.66 5 2.32 5 3 C6.65 3.33 8.3 3.66 10 4 C9.01 4.99 8.02 5.98 7 7 C6.01 6.34 5.02 5.68 4 5 C0.87478167 4.83300768 0.87478167 4.83300768 -2 5 C-1.34 3.35 -0.68 1.7 0 0 Z " fill="#858889" transform="translate(322,403)"/>
<path d="M0 0 C1.4540625 0.0309375 1.4540625 0.0309375 2.9375 0.0625 C2.6075 2.0425 2.2775 4.0225 1.9375 6.0625 C0.2875 6.0625 -1.3625 6.0625 -3.0625 6.0625 C-3.44468767 4.40635343 -3.77645102 2.73792976 -4.0625 1.0625 C-3.0625 0.0625 -3.0625 0.0625 0 0 Z " fill="#EFF2F3" transform="translate(294.0625,416.9375)"/>
<path d="M0 0 C0.33 1.32 0.66 2.64 1 4 C0.01 4.66 -0.98 5.32 -2 6 C-1.34 6.33 -0.68 6.66 0 7 C-0.33 7.66 -0.66 8.32 -1 9 C-3.64 8.67 -6.28 8.34 -9 8 C-8.34 7.01 -7.68 6.02 -7 5 C-6.34 5.33 -5.68 5.66 -5 6 C-5 5.34 -5 4.68 -5 4 C-6.32 3.34 -7.64 2.68 -9 2 C-6.94921875 1.77213542 -4.8984375 1.54427083 -2.84765625 1.31640625 C-0.98859771 1.18113386 -0.98859771 1.18113386 0 0 Z " fill="#949597" transform="translate(127,289)"/>
<path d="M0 0 C2 3.75 2 3.75 2 6 C2.66 6 3.32 6 4 6 C2.63016497 9.16115776 2.0109362 9.9927092 -1 12 C-1.92470553 7.28400182 -2.22923777 4.32734391 0 0 Z M2 0 C2.99 0.495 2.99 0.495 4 1 C4 1.99 4 2.98 4 4 C3.34 4 2.68 4 2 4 C2 2.68 2 1.36 2 0 Z " fill="#F3FAF9" transform="translate(257,355)"/>
<path d="M0 0 C0 1.32 0 2.64 0 4 C-2.97 4 -5.94 4 -9 4 C-9 3.01 -9 2.02 -9 1 C-5.8035914 -0.06546953 -3.34252724 -0.07427838 0 0 Z " fill="#F5F6F6" transform="translate(246,350)"/>
<path d="M0 0 C3.3 0 6.6 0 10 0 C7 4 7 4 4.95703125 4.390625 C2.97135417 4.26041667 0.98567708 4.13020833 -1 4 C-0.67 2.68 -0.34 1.36 0 0 Z " fill="#848788" transform="translate(337,308)"/>
<path d="M0 0 C0 1.98 0 3.96 0 6 C-3.14930893 7.04976964 -5.38814456 7.10131595 -8.6875 7.0625 C-9.68136719 7.05347656 -10.67523438 7.04445313 -11.69921875 7.03515625 C-12.83810547 7.01775391 -12.83810547 7.01775391 -14 7 C-14 6.67 -14 6.34 -14 6 C-9.545 5.505 -9.545 5.505 -5 5 C-4.67 4.01 -4.34 3.02 -4 2 C-1 0 -1 0 0 0 Z " fill="#848587" transform="translate(351,293)"/>
<path d="M0 0 C8.12622089 0.78136739 8.12622089 0.78136739 11 4 C11.25 6.6875 11.25 6.6875 11 9 C10.67 7.68 10.34 6.36 10 5 C8.68 5 7.36 5 6 5 C5.34 4.34 4.68 3.68 4 3 C1.41645782 2.83312552 1.41645782 2.83312552 -1 3 C-0.67 2.01 -0.34 1.02 0 0 Z " fill="#8F8F91" transform="translate(124,278)"/>
<path d="M0 0 C2 2 2 2 2 5 C1.43796875 4.85691406 0.8759375 4.71382813 0.296875 4.56640625 C-2.04545453 3.98879098 -4.39417659 3.45716693 -6.75 2.9375 C-7.54921875 2.76089844 -8.3484375 2.58429688 -9.171875 2.40234375 C-9.77515625 2.26957031 -10.3784375 2.13679688 -11 2 C-11 1.67 -11 1.34 -11 1 C-7.29760977 0.31118321 -3.76869351 -0.31405779 0 0 Z " fill="#E4E6E7" transform="translate(296,407)"/>
<path d="M0 0 C0.66 0.66 1.32 1.32 2 2 C1.96712417 4.72869407 1.43602229 7.2966618 1 10 C-0.32 9.67 -1.64 9.34 -3 9 C-2.25 2.25 -2.25 2.25 0 0 Z " fill="#F5F8F9" transform="translate(259,344)"/>
<path d="M0 0 C0 2.83967231 -0.40267181 5.23735711 -1 8 C-2.65 8 -4.3 8 -6 8 C-5.67 6.35 -5.34 4.7 -5 3 C-4.01 3 -3.02 3 -2 3 C-2 2.34 -2 1.68 -2 1 C-1.34 0.67 -0.68 0.34 0 0 Z " fill="#868788" transform="translate(289,304)"/>
<path d="M0 0 C1.32 0.33 2.64 0.66 4 1 C4.33 2.65 4.66 4.3 5 6 C-0.02254631 6.2954439 -2.89542386 5.98514628 -7 3 C-4.3333581 1.66667905 -2.83319697 2.32897967 0 3 C0 2.01 0 1.02 0 0 Z " fill="#9B9C9D" transform="translate(280,307)"/>
<path d="M0 0 C0.33 0.99 0.66 1.98 1 3 C1.99 3 2.98 3 4 3 C4 3.99 4 4.98 4 6 C2.68 6 1.36 6 0 6 C0.33 7.65 0.66 9.3 1 11 C0.01 11.495 0.01 11.495 -1 12 C-1.66 11.34 -2.32 10.68 -3 10 C-2.67 9.67 -2.34 9.34 -2 9 C-2.020625 8.05125 -2.04125 7.1025 -2.0625 6.125 C-2 3 -2 3 0 0 Z " fill="#9C9B9D" transform="translate(264,359)"/>
<path d="M0 0 C0.928125 0.0825 1.85625 0.165 2.8125 0.25 C2.4825 1.24 2.1525 2.23 1.8125 3.25 C0.6059375 3.683125 0.6059375 3.683125 -0.625 4.125 C-3.42678441 5.02944219 -3.42678441 5.02944219 -4.5 7.875 C-4.726875 8.65875 -4.95375 9.4425 -5.1875 10.25 C-5.5175 10.25 -5.8475 10.25 -6.1875 10.25 C-6.40681821 7.03333296 -6.45578383 4.81637697 -5.0625 1.875 C-3.1875 0.25 -3.1875 0.25 0 0 Z " fill="#84898A" transform="translate(235.1875,412.75)"/>
<path d="M0 0 C0.99 0 1.98 0 3 0 C3.33 0.66 3.66 1.32 4 2 C4.66 2 5.32 2 6 2 C6 4.64 6 7.28 6 10 C5.34 10 4.68 10 4 10 C2.68 6.7 1.36 3.4 0 0 Z " fill="#F8F9FB" transform="translate(281,292)"/>
<path d="M0 0 C2 3.75 2 3.75 2 6 C3.32 6.66 4.64 7.32 6 8 C6 8.66 6 9.32 6 10 C7.98 10 9.96 10 12 10 C12 10.33 12 10.66 12 11 C7.6677071 11.4247346 5.65037512 11.47048413 2.0625 8.875 C-0.30954571 5.56851204 -0.46233492 3.9760803 0 0 Z " fill="#A4A7A8" transform="translate(223,418)"/>
<path d="M0 0 C3.3 0.33 6.6 0.66 10 1 C10 1.66 10 2.32 10 3 C7.23749964 4.38125018 5.05268901 4.19079306 2 4 C1.34 3.34 0.68 2.68 0 2 C0 1.34 0 0.68 0 0 Z " fill="#83888B" transform="translate(368,424)"/>
<path d="M0 0 C0.66 0.33 1.32 0.66 2 1 C2 1.66 2 2.32 2 3 C2.66 3 3.32 3 4 3 C4.33 2.34 4.66 1.68 5 1 C5.33 1.99 5.66 2.98 6 4 C5.67 4.33 5.34 4.66 5 5 C5.66 5.66 6.32 6.32 7 7 C4.69 7 2.38 7 0 7 C-0.38133299 5.0085944 -0.71325582 3.00720923 -1 1 C-0.67 0.67 -0.34 0.34 0 0 Z " fill="#828586" transform="translate(204,420)"/>
<path d="M0 0 C0.66 0 1.32 0 2 0 C2 2.64 2 5.28 2 8 C0.68 8 -0.64 8 -2 8 C-2.33 6.02 -2.66 4.04 -3 2 C-2.34 2 -1.68 2 -1 2 C-0.67 1.34 -0.34 0.68 0 0 Z " fill="#858789" transform="translate(377,408)"/>
<path d="M0 0 C0.33 0 0.66 0 1 0 C1.33 1.65 1.66 3.3 2 5 C2.66 4.67 3.32 4.34 4 4 C4.125 7.375 4.125 7.375 4 11 C3.34 11.66 2.68 12.32 2 13 C-0.20914 9.68629 -0.22481553 8.6553979 -0.125 4.8125 C-0.10695312 3.91144531 -0.08890625 3.01039063 -0.0703125 2.08203125 C-0.04710937 1.39496094 -0.02390625 0.70789063 0 0 Z " fill="#9B9C9E" transform="translate(171,294)"/>
<path d="M0 0 C1.65 0 3.3 0 5 0 C4.67 1.32 4.34 2.64 4 4 C3.34 4 2.68 4 2 4 C1.67 5.32 1.34 6.64 1 8 C1 6.35 1 4.7 1 3 C-0.65 3.33 -2.3 3.66 -4 4 C-3.67 3.34 -3.34 2.68 -3 2 C-2.01 2 -1.02 2 0 2 C0 1.34 0 0.68 0 0 Z " fill="#DAE2E4" transform="translate(377,419)"/>
<path d="M0 0 C0.33 0 0.66 0 1 0 C1.36923077 6.52307692 1.36923077 6.52307692 -0.5 8.9375 C-0.995 9.288125 -1.49 9.63875 -2 10 C-2.33 9.34 -2.66 8.68 -3 8 C-3.66 8.99 -4.32 9.98 -5 11 C-5 8.36 -5 5.72 -5 3 C-3.68 3.33 -2.36 3.66 -1 4 C-0.67 2.68 -0.34 1.36 0 0 Z " fill="#E2E7E7" transform="translate(260,349)"/>
<path d="M0 0 C1.17949219 0.01804687 2.35898437 0.03609375 3.57421875 0.0546875 C4.92966797 0.08949219 4.92966797 0.08949219 6.3125 0.125 C6.6425 0.785 6.9725 1.445 7.3125 2.125 C6.219375 2.104375 5.12625 2.08375 4 2.0625 C0.36865809 1.93955548 0.36865809 1.93955548 -2.6875 3.125 C-2.6875 2.465 -2.6875 1.805 -2.6875 1.125 C-3.47125 1.62 -4.255 2.115 -5.0625 2.625 C-7.6875 4.125 -7.6875 4.125 -9.6875 4.125 C-9.6875 3.465 -9.6875 2.805 -9.6875 2.125 C-6.05554504 -0.29630331 -4.30400652 -0.08522785 0 0 Z " fill="#989B9C" transform="translate(300.6875,343.875)"/>
<path d="M0 0 C0.66 0.99 1.32 1.98 2 3 C0.515 5.475 0.515 5.475 -1 8 C-3.86724686 7.42655063 -4.8614515 7.1385485 -7 5 C-6.21625 4.731875 -5.4325 4.46375 -4.625 4.1875 C-1.71885077 3.15185568 -1.71885077 3.15185568 0 0 Z " fill="#838385" transform="translate(130,303)"/>
<path d="M0 0 C0.33 0 0.66 0 1 0 C1 3.3 1 6.6 1 10 C0.34 10 -0.32 10 -1 10 C-1.33 10.99 -1.66 11.98 -2 13 C-3.65 13 -5.3 13 -7 13 C-6.34 12.01 -5.68 11.02 -5 10 C-4.34 10 -3.68 10 -3 10 C-2.67 9.01 -2.34 8.02 -2 7 C-1.34 7.33 -0.68 7.66 0 8 C0 5.36 0 2.72 0 0 Z " fill="#DCDDDE" transform="translate(287,294)"/>
<path d="M0 0 C-0.66 1.65 -1.32 3.3 -2 5 C-3.32 5 -4.64 5 -6 5 C-6 3.35 -6 1.7 -6 0 C-3.50907189 -1.24546405 -2.58919267 -0.7767578 0 0 Z " fill="#848787" transform="translate(290,415)"/>
<path d="M0 0 C-0.639375 0.28875 -1.27875 0.5775 -1.9375 0.875 C-4.15206079 1.82823451 -4.15206079 1.82823451 -5 4 C-7.3140622 4.73075648 -9.64828869 5.40138258 -12 6 C-11.05275873 3.63189682 -10.34708866 2.24792047 -8.25 0.75 C-5.42246362 -0.19251213 -2.96006696 -0.1345485 0 0 Z " fill="#939A9A" transform="translate(236,412)"/>
<path d="M0 0 C0.66 0 1.32 0 2 0 C2 0.66 2 1.32 2 2 C3.32 2 4.64 2 6 2 C5.67 3.32 5.34 4.64 5 6 C3.35 6 1.7 6 0 6 C-0.38218767 4.34385343 -0.71395102 2.67542976 -1 1 C-0.67 0.67 -0.34 0.34 0 0 Z " fill="#EEF0EF" transform="translate(240,359)"/>
<path d="M0 0 C1.5 1.3125 1.5 1.3125 3 3 C3 3.99 3 4.98 3 6 C2.34 6 1.68 6 1 6 C0.67 6.66 0.34 7.32 0 8 C-0.99 8.495 -0.99 8.495 -2 9 C-2.25 3.375 -2.25 3.375 0 0 Z " fill="#F7F8FA" transform="translate(268,303)"/>
<path d="M0 0 C1.46109063 0.25554054 2.91888096 0.53000372 4.375 0.8125 C5.59316406 1.03873047 5.59316406 1.03873047 6.8359375 1.26953125 C9 2 9 2 11 5 C3.57142857 5.28571429 3.57142857 5.28571429 0 3 C0 2.01 0 1.02 0 0 Z " fill="#939799" transform="translate(107,424)"/>
<path d="M0 0 C0 0.33 0 0.66 0 1 C-1.65 1 -3.3 1 -5 1 C-5 2.32 -5 3.64 -5 5 C-5.99 5.33 -6.98 5.66 -8 6 C-8 4.68 -8 3.36 -8 2 C-9.65 2.33 -11.3 2.66 -13 3 C-12.67 2.34 -12.34 1.68 -12 1 C-8.01624339 -0.17169312 -4.12560776 -0.08089427 0 0 Z " fill="#929596" transform="translate(183,412)"/>
<path d="M0 0 C0.66 0.66 1.32 1.32 2 2 C-2.38585329 2.70173653 -6.55790643 3.10834375 -11 3 C-7.68107147 -0.31892853 -4.50775405 -0.28772898 0 0 Z M-7 3 C-5 4 -5 4 -5 4 Z " fill="#F5F8FB" transform="translate(243,372)"/>
<path d="M0 0 C1.98 1.65 3.96 3.3 6 5 C4.35 6.32 2.7 7.64 1 9 C0.34 7.68 -0.32 6.36 -1 5 C-0.34 5 0.32 5 1 5 C1 4.34 1 3.68 1 3 C0.34 3 -0.32 3 -1 3 C-0.67 2.01 -0.34 1.02 0 0 Z " fill="#E5EDED" transform="translate(282,407)"/>
<path d="M0 0 C0 1.65 0 3.3 0 5 C-1.32 5 -2.64 5 -4 5 C-4 4.34 -4 3.68 -4 3 C-4.66 3 -5.32 3 -6 3 C-6 2.01 -6 1.02 -6 0 C-3 -1 -3 -1 0 0 Z " fill="#929999" transform="translate(232,403)"/>
<path d="M0 0 C1.32 0 2.64 0 4 0 C4 1.98 4 3.96 4 6 C2.68 6.33 1.36 6.66 0 7 C0 4.69 0 2.38 0 0 Z " fill="#848889" transform="translate(188,345)"/>
<path d="M0 0 C2.95183101 2.95183101 3.08663988 5.95511947 4 10 C3.34 10 2.68 10 2 10 C2 9.34 2 8.68 2 8 C1.34 8 0.68 8 0 8 C-0.79953138 4.71303767 -1.09658936 3.28976808 0 0 Z " fill="#E1E3E4" transform="translate(196,408)"/>
<path d="M0 0 C0.66 0 1.32 0 2 0 C2 0.66 2 1.32 2 2 C2.66 2 3.32 2 4 2 C4 1.34 4 0.68 4 0 C4.99 0.33 5.98 0.66 7 1 C7 1.99 7 2.98 7 4 C4.36 4 1.72 4 -1 4 C-0.67 2.68 -0.34 1.36 0 0 Z " fill="#EBEDEF" transform="translate(233,408)"/>
<path d="M0 0 C2.31 0 4.62 0 7 0 C6.34 1.32 5.68 2.64 5 4 C4.67 3.34 4.34 2.68 4 2 C3.34 2 2.68 2 2 2 C1.67 2.99 1.34 3.98 1 5 C0.34 4.67 -0.32 4.34 -1 4 C-0.67 2.68 -0.34 1.36 0 0 Z " fill="#F3F5F6" transform="translate(267,371)"/>
<path d="M0 0 C1.231394 2.46278801 1.07159196 4.2795055 1 7 C-0.32 7.33 -1.64 7.66 -3 8 C-3.75 6.25 -3.75 6.25 -4 4 C-2.0625 1.75 -2.0625 1.75 0 0 Z " fill="#ECECEC" transform="translate(223,292)"/>
<path d="M0 0 C1.4540625 0.0309375 1.4540625 0.0309375 2.9375 0.0625 C3.2675 1.7125 3.5975 3.3625 3.9375 5.0625 C3.6075 4.0725 3.2775 3.0825 2.9375 2.0625 C1.2875 2.3925 -0.3625 2.7225 -2.0625 3.0625 C-2.0625 4.0525 -2.0625 5.0425 -2.0625 6.0625 C-2.7225 6.0625 -3.3825 6.0625 -4.0625 6.0625 C-4.105221 4.39638095 -4.10313832 2.72867115 -4.0625 1.0625 C-3.0625 0.0625 -3.0625 0.0625 0 0 Z " fill="#989D9E" transform="translate(258.0625,391.9375)"/>
<path d="M0 0 C0.66 0.99 1.32 1.98 2 3 C0.93940067 6.181798 -0.47551369 9.0173094 -2 12 C-3.12377697 8.69564916 -2.89554742 6.9493138 -1.5625 3.75 C-1.27503906 3.04359375 -0.98757813 2.3371875 -0.69140625 1.609375 C-0.46324219 1.07828125 -0.23507812 0.5471875 0 0 Z " fill="#969799" transform="translate(316,290)"/>
<path d="M0 0 C0.66 0.33 1.32 0.66 2 1 C2.625 4.0625 2.625 4.0625 3 7 C1.68 7 0.36 7 -1 7 C-0.67 4.69 -0.34 2.38 0 0 Z " fill="#868688" transform="translate(199,406)"/>
<path d="M0 0 C0.93423645 3.01031744 1.04449911 3.86650268 0 7 C-0.33 7 -0.66 7 -1 7 C-1.33 8.98 -1.66 10.96 -2 13 C-2.33 13 -2.66 13 -3 13 C-3.31563182 7.73946963 -2.66590937 4.55426184 0 0 Z " fill="#A3A4A6" transform="translate(330,289)"/>
<path d="M0 0 C1.65 0 3.3 0 5 0 C5.33 0.99 5.66 1.98 6 3 C6.66 3.66 7.32 4.32 8 5 C5.36 4.67 2.72 4.34 0 4 C0 2.68 0 1.36 0 0 Z " fill="#848587" transform="translate(279,286)"/>
<path d="M0 0 C1.32 0.66 2.64 1.32 4 2 C3 5 3 5 0.9375 6.1875 C0.298125 6.455625 -0.34125 6.72375 -1 7 C-1.66 6.01 -2.32 5.02 -3 4 C-2.01 4 -1.02 4 0 4 C-0.66 3.34 -1.32 2.68 -2 2 C-1.34 2 -0.68 2 0 2 C0 1.34 0 0.68 0 0 Z " fill="#919093" transform="translate(159,287)"/>
<path d="M0 0 C0 0.99 0 1.98 0 3 C-2.95664519 4.4783226 -5.74229737 4.06032783 -9 4 C-3.7826087 0 -3.7826087 0 0 0 Z " fill="#858889" transform="translate(182,424)"/>
<path d="M0 0 C-0.33 1.65 -0.66 3.3 -1 5 C-1.99 5 -2.98 5 -4 5 C-4.66 3.68 -5.32 2.36 -6 1 C-3 0 -3 0 0 0 Z " fill="#F0F5F5" transform="translate(239,417)"/>
<path d="M0 0 C1.32 0.33 2.64 0.66 4 1 C3.01 1 2.02 1 1 1 C-1.39073445 4.82517513 -1.55966552 8.59665524 -2 13 C-2.33 13 -2.66 13 -3 13 C-3.4726477 4.80743982 -3.4726477 4.80743982 -1.5 1.4375 C-0.7575 0.7259375 -0.7575 0.7259375 0 0 Z " fill="#D0D4D4" transform="translate(322,407)"/>
<path d="M0 0 C0.639375 0.2475 1.27875 0.495 1.9375 0.75 C2.2675 1.74 2.5975 2.73 2.9375 3.75 C0.9575 4.08 -1.0225 4.41 -3.0625 4.75 C-3.3925 3.43 -3.7225 2.11 -4.0625 0.75 C-2.0625 -0.25 -2.0625 -0.25 0 0 Z " fill="#838687" transform="translate(234.0625,402.25)"/>
<path d="M0 0 C2.97 0.495 2.97 0.495 6 1 C5.67 1.99 5.34 2.98 5 4 C2.36 4 -0.28 4 -3 4 C-2.01 2.68 -1.02 1.36 0 0 Z M1 1 C1.66 1.66 2.32 2.32 3 3 C3.33 2.34 3.66 1.68 4 1 C3.01 1 2.02 1 1 1 Z " fill="#828586" transform="translate(302,366)"/>
<path d="M0 0 C0.66 0 1.32 0 2 0 C2.66 0.66 3.32 1.32 4 2 C4.33 1.67 4.66 1.34 5 1 C6.66617115 0.95936168 8.33388095 0.957279 10 1 C7.75 3.0625 7.75 3.0625 5 5 C2.6875 4.75 2.6875 4.75 1 4 C1 3.34 1 2.68 1 2 C0.34 1.67 -0.32 1.34 -1 1 C-0.67 0.67 -0.34 0.34 0 0 Z " fill="#939595" transform="translate(235,355)"/>
<path d="M0 0 C0.66 0 1.32 0 2 0 C3.7143618 1.95927063 5.38405168 3.95880212 7 6 C5.68 6.33 4.36 6.66 3 7 C0 3.375 0 3.375 0 0 Z " fill="#878789" transform="translate(218,305)"/>
<path d="M0 0 C0.99 0.33 1.98 0.66 3 1 C3.33 1.99 3.66 2.98 4 4 C3.34 4 2.68 4 2 4 C2 4.66 2 5.32 2 6 C-0.31 6 -2.62 6 -5 6 C-4.360625 5.7525 -3.72125 5.505 -3.0625 5.25 C-0.81258459 4.18437567 -0.81258459 4.18437567 -0.25 1.875 C-0.1675 1.25625 -0.085 0.6375 0 0 Z " fill="#999C9C" transform="translate(329,423)"/>
<path d="M0 0 C2 1 2 1 4 3 C3.67 3.99 3.34 4.98 3 6 C3 5.34 3 4.68 3 4 C2.01 4 1.02 4 0 4 C0 4.66 0 5.32 0 6 C-0.66 6 -1.32 6 -2 6 C-1.125 1.125 -1.125 1.125 0 0 Z " fill="#969899" transform="translate(296,422)"/>
<path d="M0 0 C1.32 0 2.64 0 4 0 C4 0.66 4 1.32 4 2 C3.34 2 2.68 2 2 2 C2 3.32 2 4.64 2 6 C1.01 5.67 0.02 5.34 -1 5 C-0.67 3.35 -0.34 1.7 0 0 Z " fill="#EFF1F3" transform="translate(176,417)"/>
<path d="M0 0 C1.485 0.99 1.485 0.99 3 2 C2.67 2.66 2.34 3.32 2 4 C4.31 4 6.62 4 9 4 C6.66785852 5.20628008 4.50357861 6.1654738 2 7 C0.5393715 4.35261084 0 3.10551666 0 0 Z " fill="#ACACAC" transform="translate(192,345)"/>
<path d="M0 0 C-0.99 0.495 -0.99 0.495 -2 1 C-2 1.66 -2 2.32 -2 3 C-2.99 3 -3.98 3 -5 3 C-5.33 3.66 -5.66 4.32 -6 5 C-6.33 3.35 -6.66 1.7 -7 0 C-3.86650268 -1.04449911 -3.01031744 -0.93423645 0 0 Z " fill="#9C9FA2" transform="translate(241,345)"/>
<path d="M0 0 C1.32 0.66 2.64 1.32 4 2 C3.34 2 2.68 2 2 2 C1.34 3.32 0.68 4.64 0 6 C-0.99 5.67 -1.98 5.34 -3 5 C-1.125 1.125 -1.125 1.125 0 0 Z " fill="#98979A" transform="translate(145,287)"/>
<path d="M0 0 C2.31 0 4.62 0 7 0 C7 0.66 7 1.32 7 2 C7.66 2.33 8.32 2.66 9 3 C5.7 3 2.4 3 -1 3 C-0.67 2.01 -0.34 1.02 0 0 Z " fill="#F4F8FB" transform="translate(180,282)"/>
<path d="M0 0 C0 0.99 0 1.98 0 3 C-3.96 2.67 -7.92 2.34 -12 2 C-12 1.67 -12 1.34 -12 1 C-10.37512529 0.83211627 -8.75009558 0.66573213 -7.125 0.5 C-6.22007812 0.4071875 -5.31515625 0.314375 -4.3828125 0.21875 C-2 0 -2 0 0 0 Z " fill="#959A9D" transform="translate(378,422)"/>
<path d="M0 0 C1.65 0 3.3 0 5 0 C5.33 0.99 5.66 1.98 6 3 C3.69 3 1.38 3 -1 3 C-0.67 2.01 -0.34 1.02 0 0 Z " fill="#858787" transform="translate(269,358)"/>
<path d="M0 0 C1.65 0 3.3 0 5 0 C5.33 0.66 5.66 1.32 6 2 C5.01 2 4.02 2 3 2 C3 3.65 3 5.3 3 7 C2.34 7 1.68 7 1 7 C1.33 5.35 1.66 3.7 2 2 C1.34 2 0.68 2 0 2 C0 1.34 0 0.68 0 0 Z " fill="#838587" transform="translate(278,345)"/>
<path d="M0 0 C0.33 0.99 0.66 1.98 1 3 C-1.31 4.98 -3.62 6.96 -6 9 C-4.86634892 4.46539569 -3.35806626 3.09975347 0 0 Z " fill="#F5F8FA" transform="translate(230,285)"/>
<path d="M0 0 C9 0 9 0 12 1 C10.1875 2.5625 10.1875 2.5625 8 4 C7.01 3.67 6.02 3.34 5 3 C5 2.34 5 1.68 5 1 C3.35 1 1.7 1 0 1 C0 0.67 0 0.34 0 0 Z " fill="#DBDEE1" transform="translate(358,285)"/>
<path d="M0 0 C3.34373475 0.55728913 6.03312999 1.35173889 9 3 C6.36 3.33 3.72 3.66 1 4 C0.67 2.68 0.34 1.36 0 0 Z " fill="#FAFBFC" transform="translate(251,281)"/>
<path d="M0 0 C1.98 0.99 1.98 0.99 4 2 C4 2.66 4 3.32 4 4 C6.31 4 8.62 4 11 4 C11 4.33 11 4.66 11 5 C3.5340751 5.36717663 3.5340751 5.36717663 1 3.625 C0 2 0 2 0 0 Z " fill="#989B9C" transform="translate(283,424)"/>
<path d="M0 0 C0.66 0 1.32 0 2 0 C2.6875 2.8125 2.6875 2.8125 3 6 C2.01 6.99 1.02 7.98 0 9 C0 6.03 0 3.06 0 0 Z " fill="#858788" transform="translate(210,413)"/>
<path d="M0 0 C0.99 0 1.98 0 3 0 C2.67 0.99 2.34 1.98 2 3 C2.99 3.66 3.98 4.32 5 5 C2.69 5 0.38 5 -2 5 C-1.34 3.35 -0.68 1.7 0 0 Z " fill="#E1E5E6" transform="translate(171,408)"/>
<path d="M0 0 C1.32 0 2.64 0 4 0 C3.67 1.65 3.34 3.3 3 5 C2.01 5.33 1.02 5.66 0 6 C0 4.02 0 2.04 0 0 Z " fill="#E7E9EB" transform="translate(124,285)"/>
<path d="M0 0 C1.32 0 2.64 0 4 0 C4 1.32 4 2.64 4 4 C1.69 3.67 -0.62 3.34 -3 3 C-2.01 2.67 -1.02 2.34 0 2 C0 1.34 0 0.68 0 0 Z " fill="#FAFBFC" transform="translate(284,281)"/>
<path d="M0 0 C2.97 0.495 2.97 0.495 6 1 C6.33 1.99 6.66 2.98 7 4 C4.69 4 2.38 4 0 4 C0 2.66666667 0 1.33333333 0 0 Z " fill="#E4E7E8" transform="translate(254,398)"/>
<path d="M0 0 C0.66 0 1.32 0 2 0 C1.67 1.65 1.34 3.3 1 5 C-0.98 4.34 -2.96 3.68 -5 3 C-4.360625 2.690625 -3.72125 2.38125 -3.0625 2.0625 C-1.06389179 1.1654837 -1.06389179 1.1654837 0 0 Z " fill="#838587" transform="translate(189,287)"/>
</svg>
